<?xml version="1.0" encoding="utf-8"?>
<!-- Generator: Adobe Illustrator 24.3.0, SVG Export Plug-In . SVG Version: 6.00 Build 0)  -->
<svg version="1.1" xmlns="http://www.w3.org/2000/svg" xmlns:xlink="http://www.w3.org/1999/xlink" x="0px" y="0px"
	 viewBox="0 0 700 500" style="enable-background:new 0 0 700 500;" xml:space="preserve">
<style type="text/css">
	.st0{fill:#92E3A9;}
	.st1{opacity:0.7;fill:#FFFFFF;}
	.st2{fill:#858585;}
	.st3{opacity:0.6;fill:#FFFFFF;}
	.st4{fill:#263238;stroke:#263238;stroke-width:0.75;stroke-linecap:round;stroke-linejoin:round;stroke-miterlimit:10;}
	.st5{fill:none;stroke:#263238;stroke-width:0.75;stroke-linecap:round;stroke-linejoin:round;stroke-miterlimit:10;}
	.st6{opacity:0.4;fill:#FFFFFF;}
	.st7{opacity:0.2;}
	.st8{fill:#263238;}
	.st9{fill:none;stroke:#7F7F7F;stroke-width:0.75;stroke-linecap:round;stroke-linejoin:round;}
	.st10{opacity:0.8;clip-path:url(#XMLID_9_);fill:#FFFFFF;}
	.st11{opacity:0.3;clip-path:url(#XMLID_11_);}
	.st12{fill:#92E3A9;stroke:#263238;stroke-width:0.75;stroke-linecap:round;stroke-linejoin:round;stroke-miterlimit:10;}
	.st13{opacity:0.7;clip-path:url(#XMLID_12_);fill:#FFFFFF;}
	.st14{fill:#858585;stroke:#263238;stroke-linecap:round;stroke-linejoin:round;stroke-miterlimit:10;}
	.st15{opacity:0.2;clip-path:url(#XMLID_13_);}
	.st16{fill:#FFFFFF;stroke:#263238;stroke-width:0.75;stroke-linecap:round;stroke-linejoin:round;stroke-miterlimit:10;}
	.st17{fill:#FFFFFF;stroke:#1A2E35;stroke-width:0.75;stroke-linecap:round;stroke-linejoin:round;stroke-miterlimit:10;}
	.st18{fill:none;stroke:#1A2E35;stroke-width:0.75;stroke-linecap:round;stroke-linejoin:round;stroke-miterlimit:10;}
	.st19{opacity:0.2;clip-path:url(#XMLID_14_);}
	.st20{opacity:0.2;clip-path:url(#XMLID_19_);}
	
		.st21{clip-path:url(#XMLID_20_);fill:#263238;stroke:#263238;stroke-width:0.75;stroke-linecap:round;stroke-linejoin:round;stroke-miterlimit:10;}
	.st22{clip-path:url(#XMLID_21_);fill:#858585;stroke:#263238;stroke-width:0.75;stroke-miterlimit:10;}
	.st23{fill:#92E3A9;stroke:#263238;stroke-miterlimit:10;}
	.st24{opacity:0.2;clip-path:url(#XMLID_22_);}
	.st25{opacity:0.2;clip-path:url(#XMLID_23_);}
	
		.st26{clip-path:url(#XMLID_24_);fill:#263238;stroke:#263238;stroke-width:0.75;stroke-linecap:round;stroke-linejoin:round;stroke-miterlimit:10;}
	.st27{fill:#CBF2D6;stroke:#263238;stroke-linecap:round;stroke-linejoin:round;stroke-miterlimit:10;}
	.st28{opacity:0.5;clip-path:url(#XMLID_25_);fill:#FFFFFF;}
	.st29{display:none;}
	.st30{display:inline;fill:#263238;}
	.st31{opacity:0.2;clip-path:url(#XMLID_26_);}
	.st32{opacity:0.2;clip-path:url(#XMLID_27_);}
	.st33{fill:none;stroke:#263238;stroke-linecap:round;stroke-linejoin:round;stroke-miterlimit:10;}
	.st34{opacity:0.2;clip-path:url(#XMLID_32_);}
	.st35{opacity:0.2;clip-path:url(#XMLID_33_);}
	.st36{opacity:0.2;clip-path:url(#XMLID_34_);}
	
		.st37{clip-path:url(#XMLID_35_);fill:#263238;stroke:#263238;stroke-width:0.75;stroke-linecap:round;stroke-linejoin:round;stroke-miterlimit:10;}
	.st38{opacity:0.3;clip-path:url(#XMLID_36_);}
</style>
<g id="Background_Simple">
	<g>
		<path class="st0" d="M532.6,446.2c33.1-63.7,103.2-209.5,73.3-257.1c-29.2-46.3-72.8-17.2-127.3-45.5
			C424,115.3,454.6,20.4,358.8,19c-94.1-1.3-106.5,154.7-143.5,170.1c-37,15.4-124.5-46.8-143.4,42.8
			c-14.7,69.7,59.6,172.2,93.3,214.2H532.6z"/>
		<path class="st1" d="M532.6,446.2c33.1-63.7,103.2-209.5,73.3-257.1c-29.2-46.3-72.8-17.2-127.3-45.5
			C424,115.3,454.6,20.4,358.8,19c-94.1-1.3-106.5,154.7-143.5,170.1c-37,15.4-124.5-46.8-143.4,42.8
			c-14.7,69.7,59.6,172.2,93.3,214.2H532.6z"/>
	</g>
</g>
<g id="Shadow">
	<g>
		<path class="st2" d="M596.8,446.2H85.9c-6.5,2.9-11.9,6.6-7.2,9.5c9.5,5.8,72.4-3.9,58.1,19.5c-14.3,23.4,142.7-5.2,159.6-4.5
			c16.9,0.6,29.2,13.7,55.2,13.7c26,0,28.1-16.8,44.9-16.8c16.8,0,136,20.3,186.7,0C605.5,458.6,604.7,451.4,596.8,446.2z"/>
		<path class="st3" d="M596.8,446.2H85.9c-6.5,2.9-11.9,6.6-7.2,9.5c9.5,5.8,72.4-3.9,58.1,19.5c-14.3,23.4,142.7-5.2,159.6-4.5
			c16.9,0.6,29.2,13.7,55.2,13.7c26,0,28.1-16.8,44.9-16.8c16.8,0,136,20.3,186.7,0C605.5,458.6,604.7,451.4,596.8,446.2z"/>
	</g>
</g>
<g id="Table">
	<line class="st4" x1="72" y1="446.2" x2="600.5" y2="446.2"/>
</g>
<g id="Cloud">
	<g>
		<g>
			<path class="st5" d="M426.8,84.7c9.3,0,22.3,0,31.5,0"/>
			<path class="st5" d="M421.1,84.7c0.9,0,1.8,0,2.8,0"/>
			<path class="st5" d="M416.6,37.1c-13.1,0-23.8,10.6-23.8,23.8c0,13.1,10.6,23.8,23.8,23.8"/>
			<path class="st5" d="M445.6,16.9c-12.1,0-22.1,9.1-23.6,20.9"/>
			<path class="st5" d="M468,84.7c11.6,0,21-9.4,21-21c0-11.2-8.7-20.3-19.7-21c0.1-0.7,0.1-1.3,0.1-2c0-11.1-7.6-20.5-18-23.1"/>
		</g>
		<g>
			<path class="st5" d="M509.4,114.5c0.5-0.8,1-1.6,1.4-2.4l3.1,0.1c0.5-1.2,0.8-2.5,1-3.8l-2.7-1.5c0-0.5,0.1-0.9,0.1-1.4
				c0-0.5,0-0.9-0.1-1.4l2.7-1.5c-0.2-1.3-0.5-2.6-1-3.8l-3.1,0.1c-0.4-0.8-0.9-1.6-1.4-2.4l1.6-2.7c-0.8-1-1.7-1.9-2.8-2.8
				l-2.7,1.6c-0.8-0.5-1.6-1-2.4-1.4l0.1-3.1c-1.2-0.5-2.5-0.8-3.8-1l-1.5,2.7"/>
			<path class="st5" d="M482.9,113.2c0.3,0.4,0.5,0.9,0.8,1.3l-1.6,2.7c0.8,1,1.7,1.9,2.8,2.8l2.7-1.6c0.8,0.5,1.6,1,2.4,1.4
				l-0.1,3.1c1.2,0.5,2.5,0.8,3.8,1l1.5-2.7c0.5,0,0.9,0.1,1.4,0.1c0.5,0,0.9,0,1.4-0.1l1.5,2.7c1.3-0.2,2.6-0.5,3.8-1l-0.1-3.1
				c0.8-0.4,1.6-0.9,2.4-1.4l2.7,1.6c1-0.8,1.9-1.7,2.8-2.8"/>
			<path class="st5" d="M480.4,98.9l-1.2,0c-0.5,1.2-0.8,2.5-1,3.8l2.7,1.5c0,0.5-0.1,0.9-0.1,1.4c0,0.5,0,0.9,0.1,1.4l-2.7,1.5
				c0.2,1.3,0.5,2.6,1,3.8l3.1-0.1"/>
			<path class="st5" d="M495.1,89.9l-1.5-2.7c-1.3,0.2-2.6,0.5-3.8,1l0.1,3.1c-0.8,0.4-1.6,0.9-2.4,1.4l-2.7-1.6
				c-1,0.8-1.9,1.7-2.8,2.8l1.6,2.7c-0.5,0.8-1,1.6-1.4,2.4"/>
			<path class="st5" d="M494.5,115.4c-4.6-0.9-8.1-5-8.1-9.9c0-5.6,4.5-10.1,10.1-10.1"/>
			<path class="st5" d="M506.4,107.9c-1.1,4.4-5.1,7.7-9.8,7.7"/>
			<path class="st5" d="M506.6,106.4c0,0.2,0,0.5-0.1,0.7"/>
			<path class="st5" d="M500.2,96.1c3.8,1.5,6.4,5.1,6.4,9.4"/>
		</g>
		<g>
			<path class="st5" d="M523.8,83.8c0.3-0.4,0.6-0.9,0.8-1.3l1.7,0c0.3-0.7,0.4-1.4,0.6-2.1l-1.5-0.8c0-0.3,0-0.5,0-0.8
				c0-0.3,0-0.5,0-0.8l1.5-0.8c-0.1-0.7-0.3-1.4-0.6-2.1l-1.7,0c-0.2-0.5-0.5-0.9-0.8-1.3l0.9-1.5c-0.5-0.6-1-1.1-1.5-1.5l-1.5,0.9
				c-0.4-0.3-0.9-0.6-1.3-0.8l0-1.7c-0.7-0.3-1.4-0.4-2.1-0.6l-0.8,1.5"/>
			<path class="st5" d="M509.1,83.1c0.1,0.2,0.3,0.5,0.5,0.7l-0.9,1.5c0.5,0.6,1,1.1,1.5,1.5l1.5-0.9c0.4,0.3,0.9,0.6,1.3,0.8l0,1.7
				c0.7,0.3,1.4,0.4,2.1,0.6l0.8-1.5c0.3,0,0.5,0,0.8,0c0.3,0,0.5,0,0.8,0l0.8,1.5c0.7-0.1,1.4-0.3,2.1-0.6l0-1.7
				c0.5-0.2,0.9-0.5,1.3-0.8l1.5,0.9c0.6-0.5,1.1-1,1.5-1.5"/>
			<path class="st5" d="M507.7,75.1l-0.7,0c-0.3,0.7-0.4,1.4-0.6,2.1l1.5,0.8c0,0.3,0,0.5,0,0.8c0,0.3,0,0.5,0,0.8l-1.5,0.8
				c0.1,0.7,0.3,1.4,0.6,2.1l1.7,0"/>
			<path class="st5" d="M515.9,70.2l-0.8-1.5c-0.7,0.1-1.4,0.3-2.1,0.6l0,1.7c-0.5,0.2-0.9,0.5-1.3,0.8l-1.5-0.9
				c-0.6,0.5-1.1,1-1.5,1.5l0.9,1.5c-0.3,0.4-0.6,0.9-0.8,1.3"/>
		</g>
	</g>
	<g>
		<g>
			<path class="st5" d="M245.8,83.8c6.8,0,16.4,0,23.1,0"/>
			<path class="st5" d="M241.6,83.8c0.6,0,1.3,0,2.1,0"/>
			<path class="st5" d="M238.3,48.9c-9.6,0-17.4,7.8-17.4,17.4c0,9.6,7.8,17.4,17.4,17.4"/>
			<path class="st5" d="M259.6,34.1c-8.9,0-16.2,6.7-17.3,15.3"/>
			<path class="st5" d="M276,83.8c8.5,0,15.4-6.9,15.4-15.4c0-8.2-6.4-14.9-14.5-15.4c0-0.5,0.1-1,0.1-1.5c0-8.2-5.6-15-13.2-16.9"
				/>
		</g>
		<g>
			<path class="st5" d="M217.4,115.1c0.6-0.8,1.1-1.7,1.5-2.6l3.3,0.1c0.5-1.3,0.9-2.6,1.1-4l-2.9-1.6c0-0.5,0.1-1,0.1-1.5
				c0-0.5,0-1-0.1-1.5l2.9-1.6c-0.2-1.4-0.6-2.7-1.1-4l-3.3,0.1c-0.4-0.9-0.9-1.8-1.5-2.6l1.7-2.8c-0.9-1.1-1.9-2.1-2.9-2.9
				l-2.8,1.7c-0.8-0.6-1.7-1.1-2.6-1.5l0.1-3.3c-1.3-0.5-2.6-0.9-4-1.1l-1.6,2.9"/>
			<path class="st5" d="M189.2,113.7c0.3,0.5,0.6,0.9,0.9,1.4l-1.7,2.8c0.9,1.1,1.9,2.1,2.9,2.9l2.8-1.7c0.8,0.6,1.7,1.1,2.6,1.5
				l-0.1,3.3c1.3,0.5,2.6,0.9,4,1.1l1.6-2.9c0.5,0,1,0.1,1.5,0.1c0.5,0,1,0,1.5-0.1l1.6,2.9c1.4-0.2,2.7-0.6,4-1.1l-0.1-3.3
				c0.9-0.4,1.8-0.9,2.6-1.5l2.8,1.7c1.1-0.9,2.1-1.9,2.9-2.9"/>
			<path class="st5" d="M186.6,98.4l-1.3,0c-0.5,1.3-0.9,2.6-1.1,4l2.9,1.6c0,0.5-0.1,1-0.1,1.5c0,0.5,0,1,0.1,1.5l-2.9,1.6
				c0.2,1.4,0.6,2.7,1.1,4l3.3-0.1"/>
			<path class="st5" d="M202.2,88.9l-1.6-2.9c-1.4,0.2-2.7,0.6-4,1.1l0.1,3.3c-0.9,0.4-1.8,0.9-2.6,1.5l-2.8-1.7
				c-1.1,0.9-2.1,1.9-2.9,2.9l1.7,2.8c-0.6,0.8-1.1,1.7-1.5,2.6"/>
			<path class="st5" d="M201.6,116.1c-4.9-1-8.6-5.3-8.6-10.6c0-6,4.8-10.8,10.8-10.8"/>
			<path class="st5" d="M214.2,108c-1.1,4.7-5.4,8.2-10.5,8.2"/>
			<path class="st5" d="M214.5,106.4c0,0.3-0.1,0.5-0.1,0.8"/>
			<path class="st5" d="M207.7,95.5c4,1.6,6.8,5.5,6.8,10"/>
		</g>
		<g>
			<path class="st5" d="M176.2,104.6c0.4-0.6,0.8-1.2,1.1-1.9l2.5,0c0.4-1,0.6-2,0.8-3l-2.2-1.2c0-0.4,0.1-0.7,0.1-1.1
				c0-0.4,0-0.7-0.1-1.1l2.2-1.2c-0.2-1-0.4-2.1-0.8-3l-2.5,0c-0.3-0.7-0.7-1.3-1.1-1.9l1.3-2.1c-0.7-0.8-1.4-1.6-2.2-2.2l-2.1,1.3
				c-0.6-0.4-1.2-0.8-1.9-1.1l0-2.5c-1-0.4-2-0.6-3-0.8l-1.2,2.2"/>
			<path class="st5" d="M155,103.6c0.2,0.4,0.4,0.7,0.7,1l-1.3,2.1c0.7,0.8,1.4,1.6,2.2,2.2l2.1-1.3c0.6,0.4,1.2,0.8,1.9,1.1l0,2.5
				c1,0.4,2,0.6,3,0.8l1.2-2.2c0.4,0,0.7,0.1,1.1,0.1c0.4,0,0.7,0,1.1-0.1l1.2,2.2c1-0.2,2.1-0.4,3-0.8l0-2.5
				c0.7-0.3,1.3-0.7,1.9-1.1l2.1,1.3c0.8-0.7,1.6-1.4,2.2-2.2"/>
			<path class="st5" d="M153,92l-1,0c-0.4,1-0.6,2-0.8,3l2.2,1.2c0,0.4-0.1,0.7-0.1,1.1c0,0.4,0,0.7,0.1,1.1l-2.2,1.2
				c0.2,1,0.4,2.1,0.8,3l2.5,0"/>
			<path class="st5" d="M164.8,84.9l-1.2-2.2c-1,0.2-2.1,0.4-3,0.8l0,2.5c-0.7,0.3-1.3,0.7-1.9,1.1l-2.1-1.3
				c-0.8,0.7-1.6,1.4-2.2,2.2l1.3,2.1c-0.4,0.6-0.8,1.2-1.1,1.9"/>
			<path class="st5" d="M164.8,102.8c-2.5-0.5-4.4-2.7-4.4-5.4c0-3.1,2.5-5.5,5.5-5.5"/>
			<path class="st5" d="M171.3,98.7c-0.6,2.4-2.8,4.2-5.4,4.2"/>
			<path class="st5" d="M167.9,92.2c2.1,0.8,3.5,2.8,3.5,5.1"/>
		</g>
	</g>
</g>
<g id="Plant">
	<g>
		<g>
			<path class="st0" d="M349.9,408.7c0,0-32.8-18.9-28.4-24.2c4.4-5.3,19.4,9.5,19.4,9.5s-28.9-36.3-23.8-40
				c5.2-3.7,19.9,20.3,19.9,20.3s-17.8-40.1-10.9-41.2c6.8-1.1,17.8,34.6,17.8,34.6s-4.6-25.4,0-25.9c4.6-0.5,7.9,40.2,7.9,40.2
				s-0.2-19.2,3.8-19.1C359.8,363.1,361.4,405.9,349.9,408.7z"/>
			<path class="st6" d="M349.9,408.7c0,0-32.8-18.9-28.4-24.2c4.4-5.3,19.4,9.5,19.4,9.5s-28.9-36.3-23.8-40
				c5.2-3.7,19.9,20.3,19.9,20.3s-17.8-40.1-10.9-41.2c6.8-1.1,17.8,34.6,17.8,34.6s-4.6-25.4,0-25.9c4.6-0.5,7.9,40.2,7.9,40.2
				s-0.2-19.2,3.8-19.1C359.8,363.1,361.4,405.9,349.9,408.7z"/>
		</g>
		<g>
			<path class="st0" d="M355.1,407.1c0,0,26-15,22.5-19.2c-3.5-4.2-15.4,7.5-15.4,7.5s22.9-28.8,18.8-31.7
				c-4.1-2.9-15.8,16.1-15.8,16.1s14.1-31.7,8.7-32.6c-5.4-0.9-14.1,27.4-14.1,27.4s3.7-20.1,0-20.5c-3.7-0.4-6.3,31.9-6.3,31.9
				s0.2-15.2-3-15.1C347.3,371,346,404.9,355.1,407.1z"/>
			<path class="st7" d="M355.1,407.1c0,0,26-15,22.5-19.2c-3.5-4.2-15.4,7.5-15.4,7.5s22.9-28.8,18.8-31.7
				c-4.1-2.9-15.8,16.1-15.8,16.1s14.1-31.7,8.7-32.6c-5.4-0.9-14.1,27.4-14.1,27.4s3.7-20.1,0-20.5c-3.7-0.4-6.3,31.9-6.3,31.9
				s0.2-15.2-3-15.1C347.3,371,346,404.9,355.1,407.1z"/>
		</g>
		<path id="XMLID_95_" class="st8" d="M327.1,402v2c0,1.8,1.2,3.2,2.8,3.7l3,31.5c0.4,4.1,3.9,7.3,8,7.3h21.9c4.2,0,7.6-3.2,8-7.3
			l3-31.5c1.6-0.5,2.8-2,2.8-3.7v-2H327.1z"/>
		<path class="st9" d="M330.4,413c1,0.1,2-0.2,2.8-0.9l2.6-2.6c1.3-1.3,3.3-1.3,4.6,0l2.6,2.6c1.3,1.3,3.3,1.3,4.6,0l2.6-2.6
			c1.3-1.3,3.3-1.3,4.6,0l2.6,2.6c1.3,1.3,3.3,1.3,4.6,0l2.6-2.6c1.3-1.3,3.3-1.3,4.6,0l2.6,2.6c0.5,0.5,1.1,0.8,1.8,0.9"/>
	</g>
</g>
<g id="Interface">
	<g>
		<g>
			<defs>
				<path id="XMLID_31_" d="M437.7,323.2H247.3c-5.4,0-9.8-4.4-9.8-9.8V123c0-5.4,4.4-9.8,9.8-9.8h190.4c5.4,0,9.8,4.4,9.8,9.8
					v190.4C447.5,318.9,443.1,323.2,437.7,323.2z"/>
			</defs>
			<use xlink:href="#XMLID_31_"  style="overflow:visible;fill:#263238;"/>
			<clipPath id="XMLID_9_">
				<use xlink:href="#XMLID_31_"  style="overflow:visible;"/>
			</clipPath>
			<path class="st10" d="M437.7,323.2H247.3c-5.4,0-9.8-4.4-9.8-9.8V123c0-5.4,4.4-9.8,9.8-9.8h190.4c5.4,0,9.8,4.4,9.8,9.8v190.4
				C447.5,318.9,443.1,323.2,437.7,323.2z"/>
			
				<use xlink:href="#XMLID_31_"  style="overflow:visible;fill:none;stroke:#263238;stroke-width:0.75;stroke-linecap:round;stroke-linejoin:round;stroke-miterlimit:10;"/>
		</g>
		<g>
			<defs>
				<path id="XMLID_30_" d="M432.5,318H252.5c-5.4,0-9.8-4.4-9.8-9.8v-160c0-5.4,4.4-9.8,9.8-9.8h179.9c5.4,0,9.8,4.4,9.8,9.8v160
					C442.2,313.6,437.9,318,432.5,318z"/>
			</defs>
			<use xlink:href="#XMLID_30_"  style="overflow:visible;fill:#263238;"/>
			<clipPath id="XMLID_10_">
				<use xlink:href="#XMLID_30_"  style="overflow:visible;"/>
			</clipPath>
			
				<use xlink:href="#XMLID_30_"  style="overflow:visible;fill:none;stroke:#263238;stroke-width:0.75;stroke-linecap:round;stroke-linejoin:round;stroke-miterlimit:10;"/>
		</g>
		<g>
			<defs>
				<path id="XMLID_29_" d="M432.7,132.9h7.4c1.2,0,2.1-0.9,2.1-2.1v-7.4c0-1.2-0.9-2.1-2.1-2.1h-7.4c-1.2,0-2.1,0.9-2.1,2.1v7.4
					C430.7,131.9,431.6,132.9,432.7,132.9z"/>
			</defs>
			<use xlink:href="#XMLID_29_"  style="overflow:visible;fill:#92E3A9;"/>
			<clipPath id="XMLID_11_">
				<use xlink:href="#XMLID_29_"  style="overflow:visible;"/>
			</clipPath>
			<path class="st11" d="M432.7,132.9h7.4c1.2,0,2.1-0.9,2.1-2.1v-7.4c0-1.2-0.9-2.1-2.1-2.1h-7.4c-1.2,0-2.1,0.9-2.1,2.1v7.4
				C430.7,131.9,431.6,132.9,432.7,132.9z"/>
			
				<use xlink:href="#XMLID_29_"  style="overflow:visible;fill:none;stroke:#263238;stroke-width:0.75;stroke-linecap:round;stroke-linejoin:round;stroke-miterlimit:10;"/>
		</g>
		<path class="st12" d="M418.5,132.9h7.4c1.2,0,2.1-0.9,2.1-2.1v-7.4c0-1.2-0.9-2.1-2.1-2.1h-7.4c-1.2,0-2.1,0.9-2.1,2.1v7.4
			C416.4,131.9,417.4,132.9,418.5,132.9z"/>
		<g>
			<defs>
				<path id="XMLID_28_" d="M404.3,132.9h7.4c1.2,0,2.1-0.9,2.1-2.1v-7.4c0-1.2-0.9-2.1-2.1-2.1h-7.4c-1.2,0-2.1,0.9-2.1,2.1v7.4
					C402.2,131.9,403.1,132.9,404.3,132.9z"/>
			</defs>
			<use xlink:href="#XMLID_28_"  style="overflow:visible;fill:#92E3A9;"/>
			<clipPath id="XMLID_12_">
				<use xlink:href="#XMLID_28_"  style="overflow:visible;"/>
			</clipPath>
			<path class="st13" d="M404.3,132.9h7.4c1.2,0,2.1-0.9,2.1-2.1v-7.4c0-1.2-0.9-2.1-2.1-2.1h-7.4c-1.2,0-2.1,0.9-2.1,2.1v7.4
				C402.2,131.9,403.1,132.9,404.3,132.9z"/>
			
				<use xlink:href="#XMLID_28_"  style="overflow:visible;fill:none;stroke:#263238;stroke-width:0.75;stroke-linecap:round;stroke-linejoin:round;stroke-miterlimit:10;"/>
		</g>
		<g>
			<path class="st8" d="M243.2,129.2v-4.9c0-1.5,0.8-2.3,2.2-2.3c1.4,0,2.2,0.9,2.2,2.3v4.9c0,1.5-0.8,2.3-2.2,2.3
				C244,131.5,243.2,130.7,243.2,129.2z M246.2,129.3v-5.1c0-0.7-0.3-0.9-0.8-0.9c-0.5,0-0.8,0.3-0.8,0.9v5.1c0,0.7,0.3,0.9,0.8,0.9
				C245.9,130.2,246.2,129.9,246.2,129.3z"/>
			<path class="st8" d="M248.7,122.1h2.2c1.5,0,2.2,0.8,2.2,2.3v0.9c0,1.5-0.7,2.3-2.2,2.3h-0.7v3.8h-1.5V122.1z M250.8,126.3
				c0.5,0,0.7-0.2,0.7-0.9v-1.1c0-0.7-0.3-0.9-0.7-0.9h-0.7v2.9H250.8z"/>
			<path class="st8" d="M253.8,122.1h4v1.3h-2.5v2.5h2v1.3h-2v2.9h2.5v1.3h-4V122.1z"/>
			<path class="st8" d="M258.6,122.1h1.8l1.4,5.6h0v-5.6h1.3v9.3h-1.5l-1.8-6.8h0v6.8h-1.3V122.1z"/>
			<path class="st8" d="M266.2,129.2v-0.5h1.4v0.6c0,0.7,0.3,0.9,0.8,0.9c0.5,0,0.8-0.2,0.8-0.9c0-0.8-0.3-1.3-1.3-2.1
				c-1.2-1.1-1.6-1.8-1.6-2.9c0-1.5,0.8-2.3,2.2-2.3s2.1,0.9,2.1,2.3v0.4h-1.4v-0.5c0-0.7-0.3-0.9-0.7-0.9c-0.5,0-0.7,0.3-0.7,0.9
				c0,0.7,0.3,1.2,1.3,2c1.2,1.1,1.6,1.8,1.6,3c0,1.5-0.8,2.4-2.2,2.4C266.9,131.5,266.2,130.7,266.2,129.2z"/>
			<path class="st8" d="M271.3,129.2v-4.9c0-1.5,0.8-2.3,2.2-2.3c1.4,0,2.2,0.9,2.2,2.3v4.9c0,1.5-0.8,2.3-2.2,2.3
				C272.1,131.5,271.3,130.7,271.3,129.2z M274.3,129.3v-5.1c0-0.7-0.3-0.9-0.8-0.9c-0.5,0-0.8,0.3-0.8,0.9v5.1
				c0,0.7,0.3,0.9,0.8,0.9C274,130.2,274.3,129.9,274.3,129.3z"/>
			<path class="st8" d="M276.7,129.2v-7.1h1.5v7.2c0,0.7,0.3,0.9,0.7,0.9c0.5,0,0.7-0.2,0.7-0.9v-7.2h1.4v7.1c0,1.5-0.7,2.3-2.2,2.3
				C277.4,131.5,276.7,130.7,276.7,129.2z"/>
			<path class="st8" d="M282.1,122.1h2.2c1.5,0,2.2,0.7,2.2,2.1v0.6c0,1-0.3,1.6-1,1.8v0c0.7,0.2,1,0.9,1,2v1.6c0,0.5,0,0.8,0.2,1.1
				h-1.5c-0.1-0.2-0.1-0.4-0.1-1.1v-1.7c0-0.9-0.3-1.1-0.9-1.1h-0.5v4h-1.5V122.1z M284.1,126.1c0.5,0,0.9-0.2,0.9-1v-0.7
				c0-0.7-0.2-1-0.7-1h-0.7v2.7H284.1z"/>
			<path class="st8" d="M287.3,129.2v-5c0-1.4,0.7-2.3,2.2-2.3c1.4,0,2.2,0.9,2.2,2.3v1h-1.4v-1.1c0-0.6-0.3-0.9-0.7-0.9
				c-0.4,0-0.7,0.3-0.7,0.9v5.2c0,0.6,0.3,0.9,0.7,0.9c0.4,0,0.7-0.2,0.7-0.9v-1.4h1.4v1.3c0,1.4-0.7,2.3-2.2,2.3
				C288.1,131.5,287.3,130.7,287.3,129.2z"/>
			<path class="st8" d="M292.5,122.1h4v1.3H294v2.5h2v1.3h-2v2.9h2.5v1.3h-4V122.1z"/>
		</g>
	</g>
</g>
<g id="Character_4">
	<g>
		<g>
			<path class="st14" d="M503.3,383.3c0,0,1.7,11,1.3,14.6c-1.3,12.3-7.6,24.4-10.3,48.3h102.2c0,0,0.9-43.5-3.1-62.9H503.3z"/>
			<g>
				<defs>
					<path id="XMLID_2_" d="M502.7,389.5c0,0-2.5-42.8-7.5-83.9c-3-24.7-7.9-49.2-9.1-67.4c-1.5-23.9,27.7-17.3,53.1-18.3
						c25.4-1.1,50.1-4.4,51.9,17.9c1.8,22.2,4.2,150.4,4.2,150.4S547.2,401,502.7,389.5z"/>
				</defs>
				<use xlink:href="#XMLID_2_"  style="overflow:visible;fill:#92E3A9;"/>
				<clipPath id="XMLID_13_">
					<use xlink:href="#XMLID_2_"  style="overflow:visible;"/>
				</clipPath>
				<g class="st15">
					<path d="M494.9,252.2c-6,14-15.9,26.3-28.2,35.2l2.4,5.5c-2.8,2.3-7.8,0.2-8.1-3.4l-2.9,14.7l-9.2-0.3
						c4.5,4.5,12.4,3.9,17.6,0.3c5.3-3.6,8.6-9.3,11.9-14.8c3.3-5.5,6.9-11.1,12.5-14.2c6.7,31.6,13.4,63.1,20.2,94.7
						c1.1,5.1,2.2,10.4,5.3,14.6c6.3,8.7,18.6,10.3,29.4,10.2c16-0.1,32-2.3,47.5-6.5L592.2,272l30.8,38.3c-5,6.9-10,13.9-15,20.8
						c6.3-9.5,17.3-15.8,28.8-16.4c-1.8-1.9-4.7-2.7-7.3-2l9.5-3l-7.4-0.6c1.4-2.2,2.8-4.5,4.2-6.7c-1,1.9-3.6,2.5-5.7,1.8
						c-2-0.7-3.6-2.3-5.1-3.9c-6.8-7.1-13.6-14.3-18.5-22.9c-4.9-8.5-7.6-18.7-5.4-28.3l-3.5,8.6l-5.3-14.8c1.1,4.7-0.6,9.8-4.1,13
						c-1.4,1.3-3.1,2.3-3.9,4.1c-0.3,0.8-0.3,1.7-0.2,2.5c13.3,71-29.9,71.4-45,67.5c-13.6-3.5-26-20.6-26.5-34.4
						c-0.1-1.7,1.8-2.9,3.4-2c25.5,14.1,47.4,17.7,39.8,11.9c-13.5-2.9-49.5-17.6-55.5-49.8C499.7,253.2,497.3,251.6,494.9,252.2
						L494.9,252.2z"/>
				</g>
				
					<use xlink:href="#XMLID_2_"  style="overflow:visible;fill:none;stroke:#263238;stroke-width:0.75;stroke-linecap:round;stroke-linejoin:round;stroke-miterlimit:10;"/>
			</g>
			<path class="st5" d="M544.2,446.2c0,0-2.1-5.1-3.3-6.7c-6.2-8.3-5.5-15.4-7.8-23.1c-0.7-2.4-5.5-8.2-5.5-8.2"/>
			<polygon class="st16" points="606.5,340 599,348.9 601.3,364.3 612.6,352.4 			"/>
			<g>
				<path class="st17" d="M600.4,349.5c-0.3-1.5-0.5-5.3-1.9-5.8c-2.7-0.9-7.8,3.9-9.4,6.2c-0.8,1.1-2.4,3.4-2.4,4.7
					c0,0.7,0.6,2.3,1.3,2.4c1.2,0.2,2.5-2.5,3.4-3.3c1.1-1,5.4-3.1,5.4-3.1s-3.1,4.6-4.4,5.6c-1.9,1.6-9.9,6-4.8,8.6
					c0,0-2,2.9,1.1,3.6c3.1,0.8,7.9-3.5,7.9-3.5s-0.9,1.4-3.1,3.4c-1.9,1.7-4.8,1.3-4.1,2.6c1.1,1.9,3.6,2.1,6.4,1.1
					c2.8-0.9,4.6-2,6.6-5.3C604.8,362.7,601.3,353.8,600.4,349.5z"/>
				<path class="st18" d="M589.5,364.3c0,0,4.1-2.1,6.3-3.7c2.1-1.6,3.2-3.8,3.2-3.8"/>
			</g>
			<g>
				<defs>
					<path id="XMLID_1_" d="M567.2,219.1c0,0,24.8,1.5,24.6,9.1c0,0,12.4,5.3,13.1,11.2c0.7,6,53,62,43.9,78.3
						c-7.9,14.2-39.9,40.6-39.9,40.6s-3.1-6.9-6.5-14.9c0,0,14-30.6,20.4-33.7L589.2,267"/>
				</defs>
				<use xlink:href="#XMLID_1_"  style="overflow:visible;fill:#92E3A9;"/>
				<clipPath id="XMLID_14_">
					<use xlink:href="#XMLID_1_"  style="overflow:visible;"/>
				</clipPath>
				<g class="st19">
					<path d="M495.4,252c-6,14-15.9,26.3-28.2,35.2c0.8,1.8,1.6,3.6,2.4,5.5c-2.8,2.3-7.8,0.2-8.1-3.4c-1,4.9-1.9,9.8-2.9,14.7
						c-3.1-0.1-6.1-0.2-9.2-0.3c4.5,4.5,12.4,3.9,17.6,0.3c5.3-3.6,8.6-9.3,11.9-14.8c3.3-5.5,6.9-11.1,12.5-14.2
						c6.7,31.6,13.4,63.1,20.2,94.7c1.1,5.1,2.2,10.4,5.3,14.6c6.3,8.7,18.6,10.3,29.4,10.2c16-0.1,32-2.3,47.5-6.5
						c-0.4-38.7-0.8-77.5-1.2-116.2c10.3,12.8,20.5,25.5,30.8,38.3c-5,6.9-10,13.9-15,20.8c6.3-9.5,17.3-15.8,28.8-16.4
						c-1.8-1.9-4.7-2.7-7.3-2c3.2-1,6.3-2,9.5-3c-2.5-0.2-5-0.4-7.4-0.6c1.4-2.2,2.8-4.5,4.2-6.7c-1,1.9-3.6,2.5-5.7,1.8
						c-2-0.7-3.6-2.3-5.1-3.9c-6.8-7.1-13.6-14.3-18.5-22.9c-4.9-8.6-7.6-18.7-5.4-28.3c-1.2,2.9-2.3,5.8-3.5,8.6
						c-1.8-4.9-3.5-9.8-5.3-14.8c1.1,4.7-0.6,9.8-4.1,13c-1.4,1.2-3,2.2-3.8,3.9c-1.1,2.2-0.2,4.8,0.5,7.2
						c4.4,14.7,2.3,31.5-6.9,43.7c-9.2,12.2-25.7,19-40.6,15.2c-14.8-3.8-26.3-18.9-24.8-34.1c15.8,5.8,32.5,9.2,49.3,10.2
						c-14.1-3-28.3-7.1-40.2-15.3c-11.9-8.2-21.3-21.1-22.1-35.5L495.4,252z"/>
				</g>
				
					<use xlink:href="#XMLID_1_"  style="overflow:visible;fill:none;stroke:#263238;stroke-width:0.75;stroke-linecap:round;stroke-linejoin:round;stroke-miterlimit:10;"/>
			</g>
			<path class="st5" d="M639.8,308.5c-5.5-3.9-13.3,0.2-13.3-2.4c0-2.5,9.4-2.8,8.6-5.4"/>
			<g>
				<path class="st5" d="M596.6,255.7c1.4-3.8,2.6-8.8,2.6-15"/>
				<path class="st5" d="M592.6,237.4c0.3,5.8,0.6,14.1,0.3,20.4c-0.1,1.5,2,2,2.6,0.6"/>
				<path class="st5" d="M592.1,230.3c0,0,0.1,1.2,0.2,3.3"/>
			</g>
			<path class="st5" d="M479.1,247c0,0-1.5,10.3,0,17.6"/>
			<g>
				<path class="st16" d="M435.9,236.7l-5.7-16.3c0,0-1.8-11.2-3.2-13.4c-1.5-2.2-5.3-5.3-5.3-5.3s-2.8-3.8-4.7-5.4
					c-1.9-1.6-13.3-7.5-14.1-7.1c-0.9,0.4-2.3,3.1,5.1,7.2c0,0-4-0.3-7.3,1c-3.2,1.3-5.4,1.7-4,3.1c1.4,1.4,2.6,2.1,7.8,0.7
					c0,0,3.7,0.4,6.6,0.2l1.6,1.9c0,0-2.5-1.1-4,1.2c-1.5,2.4-3.2,5.3-2.4,7c0,0-5.7-2.9-7.2-0.5c-1.5,2.4,3.2,4.6,5.1,6.1
					c1.9,1.5,6.5,5.4,6.5,5.4s3.3,7.4,10.2,10.1c0,0,2.7,3.1,1.9,6L435.9,236.7z"/>
				<polyline class="st5" points="411.5,198.4 414,200.4 416.7,205.1 418.5,211.3 				"/>
				<path class="st5" d="M420.1,211.3c0,0-3.9,4.6-6.6,5.3c0,0-2.9-1.2-3.5-1.8c-0.5-0.4-1.2-1.3-2.7-2.4"/>
				<path class="st5" d="M415.8,210.9l-0.4-1.2c0,0-1.9,0.4-3.5,0l-0.9,1.2C411.1,210.9,413.1,210.5,415.8,210.9z"/>
				<path class="st5" d="M411.9,205.7c0,0,0.7,1.2,0.5,3.2"/>
				<path class="st5" d="M409.6,209.7c0,0,3,2.3,2.5,6.3"/>
				<polyline class="st5" points="414.2,204.5 415.8,206.3 415.8,208.3 				"/>
			</g>
			<g>
				<defs>
					<path id="XMLID_3_" d="M496.9,221.7c0,0-9.4-0.4-15.3,16.5c0,0-7.1,4.1-21.4,35.5c0,0-2.5-3.3-7.8-12.4
						c-4.6-7.9-11.7-18.2-17.6-33.1c0,0-4.7,5.8-14.8,5.5c0,0,21.8,73.8,37.1,73.8c16.9,0,35.4-39.2,35.4-39.2"/>
				</defs>
				<use xlink:href="#XMLID_3_"  style="overflow:visible;fill:#92E3A9;"/>
				<clipPath id="XMLID_19_">
					<use xlink:href="#XMLID_3_"  style="overflow:visible;"/>
				</clipPath>
				<g class="st20">
					<path d="M495.4,252c-6,14-15.9,26.3-28.2,35.2c0.8,1.8,1.6,3.6,2.4,5.5c-2.8,2.3-7.8,0.2-8.1-3.4c-1,4.9-1.9,9.8-2.9,14.7
						c-3.1-0.1-6.1-0.2-9.2-0.3c4.5,4.5,12.4,3.9,17.6,0.3c5.3-3.6,8.6-9.3,11.9-14.8c3.3-5.5,6.9-11.1,12.5-14.2
						c6.7,31.6,13.4,63.1,20.2,94.7c1.1,5.1,2.2,10.4,5.3,14.6c6.3,8.7,18.6,10.3,29.4,10.2c16-0.1,32-2.3,47.5-6.5
						c-0.4-38.7-0.8-77.5-1.2-116.2c10.3,12.8,20.5,25.5,30.8,38.3c-5,6.9-10,13.9-15,20.8c6.3-9.5,17.3-15.8,28.8-16.4
						c-1.8-1.9-4.7-2.7-7.3-2c3.2-1,6.3-2,9.5-3c-2.5-0.2-5-0.4-7.4-0.6c1.4-2.2,2.8-4.5,4.2-6.7c-1,1.9-3.6,2.5-5.7,1.8
						c-2-0.7-3.6-2.3-5.1-3.9c-6.8-7.1-13.6-14.3-18.5-22.9c-4.9-8.6-7.6-18.7-5.4-28.3c-1.2,2.9-2.3,5.8-3.5,8.6
						c-1.8-4.9-3.5-9.8-5.3-14.8c1.1,4.7-0.6,9.8-4.1,13c-1.4,1.2-3,2.2-3.8,3.9c-1.1,2.2-0.2,4.8,0.5,7.2
						c4.4,14.7,2.3,31.5-6.9,43.7c-9.2,12.2-25.7,19-40.6,15.2c-14.8-3.8-26.3-18.9-24.8-34.1c15.8,5.8,32.5,9.2,49.3,10.2
						c-14.1-3-28.3-7.1-40.2-15.3c-11.9-8.2-21.3-21.1-22.1-35.5L495.4,252z"/>
				</g>
			</g>
			<path class="st5" d="M496.9,221.7c0,0-9.4-0.4-15.3,16.5c0,0-7.1,4.1-21.4,35.5c0,0-2.5-3.3-7.8-12.4
				c-4.6-7.9-11.7-18.2-17.6-33.1c0,0-4.7,5.8-14.8,5.5c0,0,21.8,73.8,37.1,73.8c16.9,0,35.4-39.2,35.4-39.2"/>
			<g>
				<path class="st5" d="M486.4,241.9c-0.1-1.2-0.2-2.4-0.2-3.7"/>
				<path class="st5" d="M488,264.2c2.7-0.3,0.3-5.9-1.1-17.2"/>
				<path class="st5" d="M481,243.3c0,0,2.3,13.3,4.9,18.7"/>
			</g>
			<g>
				<defs>
					<path id="XMLID_90_" d="M543.9,192.8c0,0,2.6,25.5,8.2,28.5c0,0-0.9,9.7-17.5,9.7c-16.6,0-16.6-13.7-16.6-13.7L543.9,192.8z"/>
				</defs>
				<use xlink:href="#XMLID_90_"  style="overflow:visible;fill:#FFFFFF;"/>
				<clipPath id="XMLID_20_">
					<use xlink:href="#XMLID_90_"  style="overflow:visible;"/>
				</clipPath>
				<path class="st21" d="M508.1,165.3c0,0-2.7,16-2.3,19.4c0.4,3.3-0.4,6.8,0.3,12.3c0.7,5.4,4.8,20.6,14.7,22.9
					c5.2,1.2,16.3-3.8,20.9-14.1c0.3-0.7,2.2-8.6,2.2-8.6s4.6,3.1,6.1-1.9c1.5-5,3.9-9.6,0.8-12.6c-3.3-3.1-7.5,3.5-8.1,5.9
					c-0.6,2.4-2.9-0.3-2.9-0.3s-1.5-11-4.9-14c-3.4-2.9,3-8.6-0.3-12.4C531.3,157.9,516.7,158.8,508.1,165.3z"/>
				
					<use xlink:href="#XMLID_90_"  style="overflow:visible;fill:none;stroke:#263238;stroke-width:0.75;stroke-linecap:round;stroke-linejoin:round;stroke-miterlimit:10;"/>
			</g>
			<g>
				<defs>
					<path id="XMLID_89_" d="M504.2,165.5c0,0-15.1-1.5-11.8-13.6c3.3-12.2,15.9-13.5,15.9-13.5s-2.5,8.7,12.4,7
						c15-1.7,31.1-3.2,31.8,11.9c0,0,5.8,14.4-4,28.5c-9.8,14-18.8,2.7-18.8,2.7l-7.8-16.7l-14.4-3L504.2,165.5z"/>
				</defs>
				<use xlink:href="#XMLID_89_"  style="overflow:visible;fill:#263238;"/>
				<clipPath id="XMLID_21_">
					<use xlink:href="#XMLID_89_"  style="overflow:visible;"/>
				</clipPath>
				<path class="st22" d="M525.9,157.4c0,0,17.9,2.1,26.6,0c8.7-2.1,11.1,21.6,11.1,21.6l-2.1,14.4l-23.8,4.1l-11-9.8l-4.5-13.6
					L525.9,157.4z"/>
				<use xlink:href="#XMLID_89_"  style="overflow:visible;fill:none;stroke:#263238;stroke-width:0.75;stroke-miterlimit:10;"/>
			</g>
			<path class="st16" d="M502,163.6c0,0-3.5,16.1-3,19.5c0.4,3.3-0.6,6.9,0.1,12.3c0.7,5.4,3,25.8,14.8,24.2
				c11.6-1.5,27.5-11,28.9-20.4c0.1-0.8,0.8-3,0.8-3s4.8,1.5,6.7-3.6c1.8-5.1,4.8-9.7,1.2-12.6c-3.8-3.1-8.8,3.7-9.5,6.1
				c-0.7,2.4-3.4-0.3-3.4-0.3s-1.5-11-5.4-13.9c-3.9-2.9,3.7-8.7-0.1-12.5C529.2,155.7,512.3,156.9,502,163.6z"/>
			<path class="st16" d="M508.1,182.8c0,3-5.6,8.2-4.9,10.8c0.4,1.5,4.1,2.2,4.9,3.4c0.3,0.5,0.3,1.2,0.3,1.2"/>
			<path class="st8" d="M502.7,184.6c-0.1,1.2-0.6,2.1-1.2,2c-0.6,0-1-1-0.9-2.2c0.1-1.2,0.6-2.1,1.2-2
				C502.4,182.4,502.8,183.4,502.7,184.6z"/>
			<path class="st8" d="M515.8,182.7c-0.1,1.2-0.6,2.2-1.2,2.1c-0.6,0-1-1.1-0.9-2.3c0.1-1.2,0.6-2.2,1.2-2.1
				C515.4,180.4,515.9,181.4,515.8,182.7z"/>
			<path class="st5" d="M509.9,177.3c0,0,5-4,11.6,0.3"/>
			<path class="st16" d="M524.1,200.8c0,0-11,9.8-15.7,1.3"/>
			<path class="st5" d="M496.5,180.1c0,0,3.3-4.5,8.9-1.2"/>
			<path class="st8" d="M505.7,161.4c0,0-16.3,1.1-8.1,11.2C497.6,172.6,497.4,165.3,505.7,161.4z"/>
			<path class="st5" d="M505.7,184.5c0,2.8-2,5-4.4,5c-2.4,0-4.4-2.3-4.4-5c0-2.8,2-4,4.4-4C503.7,180.5,505.7,181.7,505.7,184.5z"
				/>
			<path class="st5" d="M521.2,182.6c0,2.8-2.5,5-5.5,5c-3,0-5.5-2.3-5.5-5s2.5-4,5.5-4C518.7,178.6,521.2,179.8,521.2,182.6z"/>
			<path class="st5" d="M505.4,182.6c0-1.2,4.8-1.8,4.8-0.6"/>
			<line class="st5" x1="520.9" y1="180.6" x2="543.9" y2="182.6"/>
			<g>
				<path class="st5" d="M507.7,315.5c9.6,17.1,34.1,52.9,70.1,55"/>
				<path class="st5" d="M503.1,306.6c0,0,0.7,1.6,2.1,4.2"/>
			</g>
			<path class="st23" d="M556.1,219.1c-1.6,0-3.2,0.1-4.9,0.2c-0.9,7.4-9.6,9.6-17.6,9.6c-7.8,0-12.3-2.1-12.9-9.1
				c-1.6,0-3.3,0-4.8-0.1c0.6,9.9,7.2,13.8,17.7,13.8C544.5,233.6,555.5,229.5,556.1,219.1z"/>
			<path class="st5" d="M459.3,292.6c0,0-0.4-12.3,1.3-12.9c1.8-0.6,1.8,6.8,6.5,6.5"/>
		</g>
		<path class="st16" d="M401.7,209.9l-117.5-4c-2.4-0.1-4.3-2.1-4.3-4.6l0.3-9.3c0.1-2.4,2.1-4.3,4.6-4.3l117.5,4
			c2.4,0.1,4.3,2.1,4.3,4.6l-0.3,9.3C406.1,208.1,404.1,210,401.7,209.9z"/>
		<g>
			<path class="st8" d="M335.9,199.8v-1l4.1-1.8v1.1l-2.8,1.2l2.8,1.2v1.1L335.9,199.8z"/>
			<path class="st8" d="M344.4,194.7h1.3L342,204h-1.3L344.4,194.7z"/>
			<path class="st8" d="M346.5,200.5l2.8-1.2l-2.8-1.2v-1.1l4.1,1.8v1l-4.1,1.8V200.5z"/>
		</g>
	</g>
	<line class="st5" x1="273.9" y1="194" x2="271.1" y2="194"/>
</g>
<g id="Character_3">
	<g>
		<g>
			<path class="st16" d="M425,288.6l-3.4-14.5l-6.6-24.7l-6.9-7.4l-9.2-6.9c0,0-10.2-4.3-10.5-2.1c-0.3,2.2,1.5,2.9,1.5,2.9
				s-2.9-1-3.6,0.8s4,3.1,6.6,5.4c2.6,2.3,4.3,4.3,4.3,4.3s-3.7,4.6-3.2,7.1l0.3,1.1c0,0-7.4-4-8.1-0.8c-0.7,3.2,4.3,3.9,7.2,7
				c2.9,3.1,5.6,5.1,5.6,5.1s2.8,7.2,9,9.8l0.4,15.8C408.5,291.4,418,293.3,425,288.6z"/>
			<path class="st16" d="M390.7,236.7c0,0,4.6,3.1,6.9,4.1c0,0,4.3,4.5,5.8,6.1c1.5,1.6,3.7,5.8,3.7,5.8"/>
			<path class="st5" d="M398.3,247.3c0,0,2,3.4,3.4,5c1.4,1.6,1.2,2.5,0.3,3.6"/>
			<path class="st5" d="M396.1,255.5c0,0,1.3,0.9,2.2,2c0.9,1.1,3.3,1.9,4.7,0.9c1.4-1,5.1-3.6,4.6-4.6"/>
			<path class="st5" d="M398.9,250.7c0,0,0,1.5-1,2c-1,0.5,1.4-0.6,2.4,0.3"/>
		</g>
		<g>
			<g>
				<defs>
					<path id="XMLID_18_" d="M489,331.4c0,0-8.3-5.3-20.2-1c0,0-12.5,0.4-30.8,3.5c0,0,1.3-3.6-3.5-2.8c0,0-1.8-37.2-7.9-49.8
						c0,0-0.7,3.6-22.1,4.5c0,0-1.5,66.5,6.3,76.3c7.8,9.8,73.4,2.2,73.4,2.2S495.8,342.8,489,331.4z"/>
				</defs>
				<use xlink:href="#XMLID_18_"  style="overflow:visible;fill:#263238;"/>
				<clipPath id="XMLID_22_">
					<use xlink:href="#XMLID_18_"  style="overflow:visible;"/>
				</clipPath>
				<path class="st24" d="M404.3,348.8c0,0,9.7,15,26.3,13.3c16.7-1.7,54.6-17.4,56-3.3c1.4,14.1-16.8,11.5-16.8,11.5l-44.3,6.8
					c0,0-4.6,8-18.8-4.2c-14.2-12.2-14.2-12.2-14.2-12.2L404.3,348.8z"/>
				
					<use xlink:href="#XMLID_18_"  style="overflow:visible;fill:none;stroke:#263238;stroke-width:0.75;stroke-linecap:round;stroke-linejoin:round;stroke-miterlimit:10;"/>
			</g>
			<path class="st9" d="M419.7,344.7c0,0,13-13.9,15.3-10.8c2.2,3-3.5,3.3-6.9,16.6"/>
			<g>
				<defs>
					<path id="XMLID_17_" d="M483.7,446.2c0,0,1.9-37.7,0-66.6c-1.9-28.8-16.9-39.1,0-47.7c16.9-8.6,72.7-6.4,90.1,2.2
						c17.5,8.6,6.4,48.3,7.2,65.7c0.8,17.5,3.9,46.3,3.9,46.3H483.7z"/>
				</defs>
				<use xlink:href="#XMLID_17_"  style="overflow:visible;fill:#263238;"/>
				<clipPath id="XMLID_23_">
					<use xlink:href="#XMLID_17_"  style="overflow:visible;"/>
				</clipPath>
				<path class="st25" d="M526.4,388.4c0,0-11.6-8-17.9,1.9c-6.3,10,28.1,59.8,34,60c5.9,0.3,34.3,0,34.3,0l15.3-33.7
					c0,0-6.6-70.8-19.2-72c-12.6-1.3-21.1,25.8-22.9,41.7c-1.8,15.9-0.1,22.2-0.1,22.2L526.4,388.4z"/>
				
					<use xlink:href="#XMLID_17_"  style="overflow:visible;fill:none;stroke:#263238;stroke-width:0.75;stroke-linecap:round;stroke-linejoin:round;stroke-miterlimit:10;"/>
			</g>
			<path class="st2" d="M518.1,410.5c0,1.1-0.9,1.9-1.9,1.9c-1.1,0-1.9-0.9-1.9-1.9s0.9-1.9,1.9-1.9
				C517.3,408.6,518.1,409.4,518.1,410.5z"/>
			<path class="st2" d="M518.1,432.6c0,1.1-0.9,1.9-1.9,1.9c-1.1,0-1.9-0.9-1.9-1.9c0-1.1,0.9-1.9,1.9-1.9
				C517.3,430.7,518.1,431.5,518.1,432.6z"/>
			<path class="st14" d="M519.3,362.1c3.4,0,5.7,6.8,8.9,6.8c3.2,0,11.2-22.2,14.8-28.4c3.5-6.2,1.9-13.9-3.4-15.3
				c-5.3-1.4-36.2,0-36.2,0s-3.9,5.5-0.9,12.2c3,6.7,4.1,28.5,8.3,29.2C515.1,367.4,515.1,362.1,519.3,362.1z"/>
			<path class="st2" d="M411.9,296.6c-0.4,1-1.5,1.5-2.5,1.2c-1-0.4-1.5-1.5-1.2-2.5c0.4-1,1.5-1.5,2.5-1.2
				C411.8,294.4,412.3,295.5,411.9,296.6z"/>
			<path class="st2" d="M411.9,305.2c-0.4,1-1.5,1.5-2.5,1.2c-1-0.4-1.5-1.5-1.2-2.5c0.4-1,1.5-1.5,2.5-1.2
				C411.8,303.1,412.3,304.2,411.9,305.2z"/>
			<g>
				<defs>
					<path id="XMLID_16_" d="M502.5,332.1c0,0,12.8,28.8,17.9,27.9c5.2-0.9,8.9-12.7,14.1-18.5c5.2-5.9,5.7-11.1,5.3-14.3l-1.5-14.7
						l-11.7-1.3l-16.6,12.2L502.5,332.1z"/>
				</defs>
				<use xlink:href="#XMLID_16_"  style="overflow:visible;fill:#FFFFFF;"/>
				<clipPath id="XMLID_24_">
					<use xlink:href="#XMLID_16_"  style="overflow:visible;"/>
				</clipPath>
				<path class="st26" d="M489.5,285.1c0,0-1.3,16.9-0.4,20.2c0.9,3.3,0.4,7,1.8,12.5c1.4,5.4,6.7,25.8,18.4,22.6
					c11.5-3.2,28.4-16.3,27.4-26l-0.5-1.9c0,0,5.1,0.8,6.3-4.6c1.1-5.4,3.5-10.5-0.6-13c-4.3-2.6-8.4,5-8.8,7.5
					c-0.4,2.6-3.5,0.2-3.5,0.2s-3-11-7.5-13.4c-4.4-2.4,2.5-9.3-1.8-12.7C516,273.3,499,276.9,489.5,285.1z"/>
				
					<use xlink:href="#XMLID_16_"  style="overflow:visible;fill:none;stroke:#263238;stroke-width:0.75;stroke-linecap:round;stroke-linejoin:round;stroke-miterlimit:10;"/>
			</g>
			<path class="st16" d="M496.7,275.3c0,0-5.8,16.3-5.8,19.8s-1.6,7-1.6,12.8c-0.1,5.7-0.4,27.2,12,27.2c12.2,0,32.4-8.3,34-18.1v-2
				c0,0,4.8,2.2,7.4-2.8c2.6-5,6.3-9.4,3-12.9c-3.5-3.7-9.6,2.6-10.7,5c-1.1,2.4-3.5-0.7-3.5-0.7s0-11.6-3.7-15.2
				c-3.7-3.5,5-8.5,1.7-12.9C526,270.9,508.3,269.8,496.7,275.3z"/>
			<path class="st4" d="M542.8,303.3c0,0,7-9.9,2.2-21.5c0,0-3.9-19.6-27.7-21.6c0,0,6.1-4.6,2.2-6.5c-5.9-2.8-16.2,6.7-16.2,6.7
				s4.8-7.3,2.5-7.5c-2.4-0.1-19,18.6-9.1,25.2c9.9,6.7,24.5,0.9,24.5,0.9l7.2,24.3l1.1,3.1l10.4,0.7L542.8,303.3z"/>
			<path class="st9" d="M529.4,268.1c6.7,3.9,11,10.9,9.2,26.4"/>
			<path class="st9" d="M509.7,266.7c4.3-0.4,10.8-2.5,16.6-0.1"/>
			<path class="st9" d="M515.8,256.5c0,0-13.3,6.5-10.3,9.4"/>
			<path class="st9" d="M497.8,268.5c3.1,2.4,6.7-0.2,13.2,0"/>
			<path class="st9" d="M501.6,258.5c0,0-3.3,3.6-4.3,6.7"/>
			<path class="st16" d="M496.7,275.3c0,0-5.8,16.3-5.8,19.8s-1.6,7-1.6,12.8c-0.1,5.7-0.4,27.2,12,27.2c12.2,0,32.4-8.3,34-18.1v-2
				c0,0,4.8,2.2,7.4-2.8c2.6-5,6.3-9.4,3-12.9c-3.5-3.7-9.6,2.6-10.7,5c-1.1,2.4-3.5-0.7-3.5-0.7s0-11.6-3.7-15.2
				c-3.7-3.5,5-8.5,1.7-12.9C526,270.9,508.3,269.8,496.7,275.3z"/>
			<path class="st16" d="M502.5,296.4c0,0-6.8,6.6-6.5,9.4c0.2,1.6,4,2.8,4.6,4.3c0.2,0.6,0,2.4,0,2.4"/>
			<path class="st8" d="M497.5,296.9c-0.4,1.3-1.5,2.1-2.4,1.8c-0.9-0.3-1.2-1.6-0.8-2.9c0.4-1.3,1.5-2.1,2.4-1.8
				C497.6,294.3,497.9,295.6,497.5,296.9z"/>
			<path class="st8" d="M514.3,296.9c-0.4,1.3-1.5,2.1-2.4,1.8c-0.9-0.3-1.2-1.6-0.8-2.9c0.4-1.3,1.5-2.1,2.4-1.8
				C514.3,294.3,514.7,295.6,514.3,296.9z"/>
			<path class="st16" d="M508.4,291.4c0,0,5.7-3.5,12,1.9"/>
			<path class="st16" d="M496.7,314c0,0,8.9,3.1,17.7,0.9C514.4,314.9,500.7,324.1,496.7,314z"/>
			<path class="st16" d="M493.1,292.3c0,0,4.1-4.3,9.4,0"/>
			<g>
				<path class="st16" d="M528.3,336.6c-1.7,5.1-4.3,12-7.1,16.2"/>
				<path class="st16" d="M530.4,330c0,0-0.4,1.4-1.1,3.5"/>
			</g>
			<g>
				<g>
					<path class="st16" d="M525.2,373.6l-5.8-7c0,0-7-10.2-9.7-18.2c-2.7-8-3.1-12.2-7.3-12.2s-19.2-1-18.7,4.1c0,0-1.2,3.1,0,5.8
						c0,0,0.4,3.6,2.4,6.5c2,2.9,3.2,2.3,3.2,2.3s1.4,2.3,2.7,2.3c0,0,1.2,6.1,10.4,11.4l6.5,7l6.8,12.6l12.7-10.1L525.2,373.6z"/>
					<path class="st16" d="M504.1,343.1c0,0-2.6,1.1-4.7,1.7c-2.2,0.5-9.6,1.7-10.1,3.8c-0.5,2.2,2.4,7.7,4,7.9c1.5,0.3,7,0,7.3-1.1
						c0,0,0.3,1.5,0,3.1c-0.3,1.5-1.4,4,0.5,7.9"/>
					<path class="st16" d="M483.7,346.1c0,0,1-1.7,2.9-2c1.9-0.4,9.6-2.3,10.8-3.2"/>
					<path class="st16" d="M483.7,340.3c0,0,1.4-0.7,2.9-1c1.5-0.3,9.4-2.5,12-2.2"/>
					<path class="st16" d="M499.5,353.6c0,0-1.8-1.5-2.8-1c-1,0.4-1.3,1.5-2.6,2.2"/>
					<path class="st16" d="M496.7,352.5c0,0,3-0.9,4.4-2.2"/>
				</g>
				<path class="st4" d="M577.5,335.8c-9.5-5.2-22.5,13.9-22.7,36.9c-0.3,23-0.6,27.2-0.6,27.2l-28.6-30.8c0,0-1.9,8-15.5,14.4
					c0,0,6.1,18,17.8,35.5c11.7,17.5,23,33,30.2,33c7.2,0,20.6-16.9,25.5-39.1C594.1,365.2,597.2,346.6,577.5,335.8z"/>
				<g>
					<path class="st9" d="M559.5,403.9c-0.5-0.4-0.1-1.3,0.6-1.1c4.2,1.4,11.8,5.3,16.6,15.3"/>
					<path class="st9" d="M570.3,422.1c0,0-1.7-8.8-8.3-15.8"/>
				</g>
				<g>
					<path class="st9" d="M579.4,404.7c0.7,0.7,1.4,1.5,2.2,2.3"/>
					<path class="st9" d="M559.3,399c0,0,8.5-3.6,17.9,3.8"/>
				</g>
				<g>
					<path class="st9" d="M556.8,374.9c-0.3,1.4-0.5,2.9-0.6,4.4"/>
					<path class="st9" d="M570.4,348.8c0,0-8.3,7.5-12.4,21"/>
				</g>
				<path class="st2" d="M520.1,390.3c0,1.1-0.9,1.9-1.9,1.9s-1.9-0.9-1.9-1.9c0-1.1,0.9-1.9,1.9-1.9S520.1,389.3,520.1,390.3z"/>
				<path class="st2" d="M524,398.2c0,1.1-0.9,1.9-1.9,1.9c-1.1,0-1.9-0.9-1.9-1.9c0-1.1,0.9-1.9,1.9-1.9
					C523.1,396.2,524,397.1,524,398.2z"/>
				<line class="st9" x1="549.7" y1="395" x2="525.6" y2="369.1"/>
				<g>
					<path class="st9" d="M564.8,340.7c-5.5,6.8-9.8,18.7-10,32c-0.3,23-0.6,27.2-0.6,27.2"/>
					<path class="st9" d="M571,335.6c-1.3,0.5-2.6,1.4-3.8,2.5"/>
				</g>
				<path class="st9" d="M569,444.4c4.8-5.8,9.6-14.4,12.8-24.5"/>
				<path class="st9" d="M510.1,383.5c0,0,6.1,18,17.8,35.5c6.7,10.1,13.4,19.6,19.2,25.8"/>
			</g>
		</g>
		<g>
			<path class="st27" d="M525.1,447.1h-44.8v4.1h44.5c0.9,0,1.7-0.8,1.7-1.7v-1.1C526.4,447.7,525.8,447.1,525.1,447.1z"/>
			<path class="st4" d="M458.6,379.8h5.6c1.8,0,3.3,1.2,3.8,2.9l18.4,63.4c0.7,2.5-1.2,5.1-3.8,5.1h-4.9L458.6,379.8z"/>
			<path class="st12" d="M399,451.2h81.7c2.7,0,4.6-2.5,3.8-5.1l-18.4-63.4c-0.5-1.7-2.1-2.9-3.8-2.9h-81.7c-2.7,0-4.6,2.5-3.8,5.1
				l18.4,63.4C395.7,450,397.2,451.2,399,451.2z"/>
		</g>
		<g>
			<defs>
				<path id="XMLID_15_" d="M388.3,253.4H270.7c-2.4,0-4.4-2-4.4-4.4v-9.3c0-2.4,2-4.4,4.4-4.4h117.5c2.4,0,4.4,2,4.4,4.4v9.3
					C392.7,251.4,390.7,253.4,388.3,253.4z"/>
			</defs>
			<use xlink:href="#XMLID_15_"  style="overflow:visible;fill:#92E3A9;"/>
			<clipPath id="XMLID_25_">
				<use xlink:href="#XMLID_15_"  style="overflow:visible;"/>
			</clipPath>
			<path class="st28" d="M388.3,253.4H270.7c-2.4,0-4.4-2-4.4-4.4v-9.3c0-2.4,2-4.4,4.4-4.4h117.5c2.4,0,4.4,2,4.4,4.4v9.3
				C392.7,251.4,390.7,253.4,388.3,253.4z"/>
			
				<use xlink:href="#XMLID_15_"  style="overflow:visible;fill:none;stroke:#263238;stroke-width:0.75;stroke-linecap:round;stroke-linejoin:round;stroke-miterlimit:10;"/>
		</g>
		<g class="st29">
			<path class="st30" d="M324.4,246.1v-5c0-1.4,0.7-2.3,2.2-2.3c1.4,0,2.2,0.9,2.2,2.3v1h-1.4V241c0-0.6-0.3-0.9-0.7-0.9
				c-0.4,0-0.7,0.3-0.7,0.9v5.2c0,0.6,0.3,0.9,0.7,0.9c0.4,0,0.7-0.2,0.7-0.9v-1.4h1.4v1.3c0,1.4-0.7,2.3-2.2,2.3
				C325.1,248.4,324.4,247.5,324.4,246.1z"/>
			<path class="st30" d="M331.2,244.1h-1.8v-1h1.8v-1.8h1v1.8h1.8v1h-1.8v1.8h-1V244.1z"/>
			<path class="st30" d="M336.5,244.1h-1.8v-1h1.8v-1.8h1v1.8h1.8v1h-1.8v1.8h-1V244.1z"/>
		</g>
	</g>
	<g>
		<path class="st8" d="M320.6,241.5v6.6h-1.3V239h1.8l1.5,5.4V239h1.3v9.1h-1.5L320.6,241.5z"/>
		<path class="st8" d="M326,243.6h1.7v1.1H326v2.3h2.1v1.1h-3.3v-7.7h3.3v1.1H326V243.6z"/>
		<path class="st8" d="M328.7,242.2c0-0.6,0.1-1.1,0.4-1.4c0.3-0.3,0.7-0.5,1.3-0.5c0.6,0,1,0.2,1.3,0.5c0.3,0.3,0.4,0.8,0.4,1.4
			v0.2h-1.1v-0.3c0-0.3-0.1-0.5-0.2-0.6s-0.3-0.2-0.4-0.2c-0.2,0-0.3,0.1-0.4,0.2c-0.1,0.1-0.2,0.3-0.2,0.6c0,0.3,0.1,0.5,0.2,0.7
			s0.3,0.4,0.4,0.6c0.2,0.2,0.4,0.4,0.6,0.5c0.2,0.2,0.4,0.4,0.6,0.6c0.2,0.2,0.3,0.5,0.4,0.7c0.1,0.3,0.2,0.6,0.2,1
			c0,0.6-0.2,1.1-0.5,1.4c-0.3,0.3-0.8,0.5-1.3,0.5c-0.6,0-1-0.2-1.3-0.5c-0.3-0.3-0.5-0.8-0.5-1.4v-0.5h1.1v0.5
			c0,0.3,0.1,0.5,0.2,0.6s0.3,0.2,0.5,0.2s0.3-0.1,0.5-0.2s0.2-0.3,0.2-0.6c0-0.3-0.1-0.5-0.2-0.7c-0.1-0.2-0.3-0.4-0.4-0.6
			c-0.2-0.2-0.4-0.4-0.6-0.5s-0.4-0.4-0.6-0.6c-0.2-0.2-0.3-0.5-0.4-0.7C328.7,242.9,328.7,242.6,328.7,242.2z"/>
		<path class="st8" d="M332.6,240.4h3.7v1.1h-1.3v6.6h-1.2v-6.6h-1.3V240.4z"/>
		<path class="st8" d="M336.6,246.8c0.1,0,0.2,0,0.2,0c0.1,0,0.2,0,0.2,0c0.2,0,0.4-0.1,0.6-0.2c0.2-0.1,0.2-0.3,0.2-0.7V239h1.4
			v6.8c0,0.5-0.1,0.8-0.2,1.1c-0.1,0.3-0.3,0.5-0.5,0.7c-0.2,0.2-0.4,0.3-0.7,0.4c-0.2,0.1-0.5,0.1-0.8,0.1c-0.1,0-0.2,0-0.4,0
			s-0.2,0-0.3,0V246.8z"/>
		<path class="st8" d="M340.1,241.1c0-0.7,0.2-1.3,0.5-1.7c0.4-0.4,0.9-0.6,1.6-0.6c0.7,0,1.2,0.2,1.6,0.6c0.4,0.4,0.5,1,0.5,1.7
			v0.3H343V241c0-0.3-0.1-0.6-0.2-0.7c-0.1-0.1-0.3-0.2-0.5-0.2s-0.4,0.1-0.5,0.2c-0.1,0.1-0.2,0.4-0.2,0.7c0,0.3,0.1,0.6,0.2,0.8
			c0.1,0.2,0.3,0.5,0.5,0.7s0.4,0.4,0.7,0.6c0.2,0.2,0.5,0.4,0.7,0.7s0.4,0.5,0.5,0.9s0.2,0.7,0.2,1.1c0,0.7-0.2,1.3-0.5,1.7
			c-0.4,0.4-0.9,0.6-1.6,0.6c-0.7,0-1.2-0.2-1.6-0.6c-0.4-0.4-0.5-1-0.5-1.7v-0.6h1.4v0.7c0,0.3,0.1,0.6,0.2,0.7
			c0.1,0.1,0.3,0.2,0.5,0.2c0.2,0,0.4-0.1,0.5-0.2c0.1-0.1,0.2-0.4,0.2-0.7c0-0.3-0.1-0.6-0.2-0.8s-0.3-0.5-0.5-0.7
			c-0.2-0.2-0.4-0.4-0.7-0.6s-0.5-0.4-0.7-0.7s-0.4-0.5-0.5-0.9C340.2,241.9,340.1,241.6,340.1,241.1z"/>
	</g>
</g>
<g id="Character_1">
	<g>
		<path class="st12" d="M382.9,168.6l-116.2,17.7c-2.4,0.4-4.7-1.3-5-3.7l-1.4-9.2c-0.4-2.4,1.3-4.7,3.7-5l116.2-17.7
			c2.4-0.4,4.7,1.3,5,3.7l1.4,9.2C387,166,385.3,168.2,382.9,168.6z"/>
		<g>
			<g>
				<g>
					<defs>
						<path id="XMLID_88_" d="M92.6,234.1c0,0-10.3,5.1-12.6,15.3c0,0-2.9-2.9-4.1,9.6c0,0-25.9,48.1-26.2,68.7
							c-0.3,20.7,48.6,54.2,48.6,54.2s5.2-7,4.1-13.4c0,0-18.9-35.8-28.5-40.2c0,0,10.8-26.2,18.1-31.2
							C99.2,292.2,92.6,234.1,92.6,234.1z"/>
					</defs>
					<use xlink:href="#XMLID_88_"  style="overflow:visible;fill:#263238;"/>
					<clipPath id="XMLID_26_">
						<use xlink:href="#XMLID_88_"  style="overflow:visible;"/>
					</clipPath>
					<path class="st31" d="M91.5,306.1c0,0-11.4-32.8-15.4-25.5c-4,7.3-14.4,44.4-8.5,49.9c5.9,5.4-3.7,5.8,0.7,13
						c4.4,7.2,33.3,34.4,36.2,33.6c3-0.8-10.7-46.6-10.7-46.6L91.5,306.1z"/>
					
						<use xlink:href="#XMLID_88_"  style="overflow:visible;fill:none;stroke:#263238;stroke-width:0.75;stroke-linecap:round;stroke-linejoin:round;stroke-miterlimit:10;"/>
				</g>
				<path class="st9" d="M79.1,260.9c0,0,1,15,4.4,23.6"/>
				<path class="st9" d="M71.9,331.2c0,0-5.5,5.9-13,5.1"/>
				<line class="st9" x1="93.4" y1="357.7" x2="93.9" y2="375.5"/>
			</g>
			<g>
				<path class="st12" d="M180.7,388.9c0,0,12.2,38.4,14.6,57.3H95.7c0,0-0.9-45,2.9-59.4L180.7,388.9z"/>
				<path class="st5" d="M138.8,436c2.2,2,6.6,10.2,6.6,10.2"/>
				<path class="st5" d="M117.8,410.1c0,0,7.9,12.3,16.9,21.9"/>
			</g>
			<path class="st4" d="M144.9,158.2c0,0,7.6-6.8,5.8-11.1c-2.3-5.6-8.2,2.7-8.2,2.7s2.3-8.5-2.6-10.7c-5.3-2.3-9.8,7.8-9.8,7.8
				s-1.4-8.6-8.9-6.8c-6.4,1.6-1.2,8.7-6.4,11.1c-5.2,2.3-22.5,8.3-19.2,20c0,0-4.7-9.1-6.4-5.4c-1.7,3.7,4.3,8.7,6.6,9.3
				c0,0-3.7,7.8-0.8,9.9c2.9,2.1,2.3-5.6,2.3-5.6s1.9,21.4,22.5,32.6c20.6,11.2,20.1-26,20.1-26l5.2-16.7L144.9,158.2z"/>
			<g>
				<path class="st9" d="M118.6,156.6c-8.7,2.7-21.7,6-16.1,23.3"/>
				<path class="st9" d="M122.4,143.6c0,0,3.2,6.8-0.1,10.8"/>
			</g>
			<g>
				<g>
					<path class="st9" d="M112.5,190.6c0.5,1.1,1,2.2,1.6,3.4"/>
					<path class="st9" d="M135.5,150.6c-1.4,2.4-3.8,4.8-7.5,6.6c-9,4.3-23.2,9.3-17.2,28.8"/>
				</g>
				<path class="st9" d="M137.9,142.9c0,0,0,1.6-0.7,3.9"/>
			</g>
			<g>
				<path class="st9" d="M122.3,166.5c-4.6,3.5,2,8.2,4.7,14.2"/>
				<path class="st9" d="M148,149.1c0,0-8.5,11.6-21,15.3"/>
			</g>
			<g>
				<defs>
					<path id="XMLID_87_" d="M96.6,389.4c0,0-0.6-21-3.5-53.6c-2.9-32.6-19.2-97.9,3.5-103.7c22.7-5.8,68-9.5,83.3,5.2
						c16.9,16.3,4.1,107.2,3.5,122.9c-0.6,15.7,2.3,33.8,2.3,33.8S125.4,407.2,96.6,389.4z"/>
				</defs>
				<use xlink:href="#XMLID_87_"  style="overflow:visible;fill:#263238;"/>
				<clipPath id="XMLID_27_">
					<use xlink:href="#XMLID_87_"  style="overflow:visible;"/>
				</clipPath>
				<path class="st32" d="M88.1,326.1c0,0-8.7-56.8,21.3-60.1c30-3.3,69.6-1.9,73.7,23.2c4.2,25.1,13.3,85.1,13.3,85.1l6.2,27.1
					l-48.7,9.2l-65.1-7L88.1,326.1z"/>
				
					<use xlink:href="#XMLID_87_"  style="overflow:visible;fill:none;stroke:#263238;stroke-width:0.75;stroke-linecap:round;stroke-linejoin:round;stroke-miterlimit:10;"/>
			</g>
			<path class="st16" d="M143.9,223.4v-6.6c0,0,11.3,1.7,12.8-1.2c1.5-2.9-1-15-1-15s5.4,0.2,5.4-2.3c0-2.5-6.4-13.2-6.4-13.2
				s0.8-8.5,0-11.3c-0.8-2.7-8.7-18.1-8.7-18.1s-11.6,6.4-11.3,9.9c0.4,3.5,3.7,6.8,1,9.7c-2.7,2.9-6.4,10.8-5.2,14.5l-1.7,1.2
				c0,0-1-7-4.9-8.2c-3.9-1.2-7,6.6-4.3,12c2.7,5.4,5.8,4.5,5.8,4.5s-1.6,9.3-5.6,12.4l-1.2,9.7L143.9,223.4z"/>
			<ellipse class="st8" cx="151.4" cy="183" rx="1.3" ry="2.3"/>
			<path class="st5" d="M142.8,199c0,0,0.9,2.5,8.2,2.9"/>
			<path class="st5" d="M151.4,176.5c0,0-4-0.6-5.3,3.5"/>
			<path class="st4" d="M110.9,232.6c0,0-7.8-10.5,0-11.7c7.8-1.2,39.6-3.9,44.7,0c5,3.9-7.8,2.7-8.5,9.3
				C146.3,236.8,110.9,232.6,110.9,232.6z"/>
			<g>
				<path class="st5" d="M158.9,185c0,3.7-1.1,6.8-2.4,6.8c-1.3,0-2.4-3-2.4-6.8c0-3.7,1.1-6.8,2.4-6.8
					C157.8,178.2,158.9,181.2,158.9,185z"/>
				<path class="st33" d="M158.3,180.7l-26.8,2c-1.9,0.1-3.7,0.9-5.2,2"/>
			</g>
			<g>
				<path class="st16" d="M239.3,206.5l6.3-14.1c0,0,3.7-15.3,6.6-18.6c2.9-3.3,7.7-9.3,9.2-7.7c1.1,1.2-0.3,5.3-2.7,8.5
					c-2.6,3.4-0.5,6.6,0.5,8c1,1.4,6.7,4.2,11.1,4.8c4.5,0.6,13.4-5.1,16.4-3.1c3.1,2-3.2,4.2-3.2,4.2s4.8-0.6,5.8,2.1
					c0.6,1.6-4.3,1.6-6.8,1.8c-2.4,0.2-7.3,1-7.3,1s8.8,1.1,8.7,3.5c-0.1,2.4-6.6,0.1-11.5,0.3c0,0,7.1,1.8,6.7,4.1
					c-0.4,2.3-4.1-0.1-10-1.1l-13.7-1.7l-4.3,15.9L239.3,206.5z"/>
				<path class="st5" d="M280.1,189.1c0,0-4.2,2.8-10.3,1.3c0,0,0.6,1.9,0,2.7c-0.6,0.8-0.5,2.4-2,3.4c-1.5,1-2.3,1.5-2.3,1.5"/>
				<g>
					<defs>
						<path id="XMLID_86_" d="M158.9,228.6c0,0,21.5,0.1,29.7,6.8c0,0,0-3.5,6.4,0c0,0,19.5-2.3,28.5,0c0,0,11.1-27.4,17.8-34.7
							c0,0,9.6,0.6,12.2,5c1.2,2.1-1.7,13.5-4.4,25.1c-3,12.8-6.1,25.9-8.7,27c-5,2-57.1,6.7-57.1,6.7l-24.5-12.8V228.6z"/>
					</defs>
					<use xlink:href="#XMLID_86_"  style="overflow:visible;fill:#263238;"/>
					<clipPath id="XMLID_32_">
						<use xlink:href="#XMLID_86_"  style="overflow:visible;"/>
					</clipPath>
					<path class="st34" d="M188.6,266.9c0,0-4.9-17.4,3-15.8c7.8,1.6,38.9,4.8,44.6-0.1c5.7-4.9,9.4-46.7,16.8-44.6
						c7.4,2,2.3,38.5,2.3,38.5s4.6,10.1-9.9,17.9c-14.5,7.8-14.5,7.8-14.5,7.8l-25.7,2.2L188.6,266.9z"/>
					
						<use xlink:href="#XMLID_86_"  style="overflow:visible;fill:none;stroke:#263238;stroke-width:0.75;stroke-linecap:round;stroke-linejoin:round;stroke-miterlimit:10;"/>
				</g>
				<path class="st9" d="M226.2,236.5c0,0,4.4,0.9,9.6,7.9"/>
				<path class="st9" d="M190.9,240.5c0,0,2.6,10.1,0,20.2"/>
				<path class="st9" d="M172.6,232.6c0,0,14,7.4,15,28.1"/>
			</g>
			<g>
				<path class="st9" d="M173.5,367c1-1.2,1.7-2.5,2.3-4"/>
				<path class="st9" d="M106.7,378.2c0,0,46.2,6.1,63.7-8.1"/>
			</g>
		</g>
	</g>
	<g class="st29">
		<path class="st30" d="M316.8,171.6l-0.8-4.9c-0.2-1.4,0.4-2.4,1.8-2.6c1.4-0.2,2.3,0.5,2.5,1.9l0.2,1l-1.4,0.2l-0.2-1.1
			c-0.1-0.6-0.4-0.8-0.9-0.7c-0.4,0.1-0.7,0.4-0.6,1l0.8,5.1c0.1,0.6,0.4,0.8,0.9,0.7c0.4-0.1,0.7-0.4,0.6-1l-0.2-1.4l1.4-0.2
			l0.2,1.3c0.2,1.4-0.4,2.4-1.8,2.6C317.9,173.7,317,173,316.8,171.6z"/>
		<path class="st30" d="M321.7,170.7l-0.1-0.5l1.4-0.2l0.1,0.6c0.1,0.7,0.4,0.8,0.9,0.8c0.5-0.1,0.7-0.4,0.6-1
			c-0.1-0.8-0.5-1.2-1.6-1.9c-1.4-0.9-1.9-1.5-2.1-2.6c-0.2-1.4,0.4-2.4,1.8-2.6c1.4-0.2,2.2,0.5,2.5,2l0.1,0.4l-1.4,0.2l-0.1-0.5
			c-0.1-0.7-0.4-0.9-0.9-0.8c-0.5,0.1-0.7,0.4-0.6,1c0.1,0.7,0.5,1.1,1.6,1.8c1.4,0.9,1.9,1.5,2.1,2.7c0.2,1.5-0.4,2.5-1.8,2.7
			C322.8,172.9,321.9,172.2,321.7,170.7z"/>
		<path class="st30" d="M326.6,169.9l-0.1-0.5l1.4-0.2l0.1,0.6c0.1,0.7,0.4,0.8,0.9,0.8c0.5-0.1,0.7-0.4,0.6-1
			c-0.1-0.8-0.5-1.2-1.6-1.9c-1.4-0.9-1.9-1.5-2.1-2.6c-0.2-1.4,0.4-2.4,1.8-2.6c1.4-0.2,2.2,0.5,2.5,2l0.1,0.4l-1.4,0.2l-0.1-0.5
			c-0.1-0.7-0.4-0.9-0.9-0.8c-0.5,0.1-0.7,0.4-0.6,1c0.1,0.7,0.5,1.1,1.6,1.8c1.4,0.9,1.9,1.5,2.1,2.7c0.2,1.5-0.4,2.5-1.8,2.7
			C327.6,172.1,326.8,171.4,326.6,169.9z"/>
	</g>
	<g>
		<path class="st8" d="M315.2,174c0-0.1-0.1-0.1-0.1-0.2c0,0,0-0.1-0.1-0.2c0-0.1,0-0.2-0.1-0.3c0-0.1,0-0.3-0.1-0.4l-0.2-1.4
			c-0.1-0.4-0.2-0.7-0.4-0.9c-0.2-0.1-0.4-0.2-0.7-0.1l-0.5,0.1l0.6,3.7l-1.4,0.2l-1.4-9l2.1-0.3c0.7-0.1,1.3,0,1.7,0.3
			c0.4,0.3,0.6,0.8,0.7,1.5l0.1,0.7c0.1,0.9-0.1,1.6-0.6,2c0.4,0.1,0.7,0.3,0.8,0.6c0.2,0.3,0.3,0.7,0.4,1.2l0.2,1.4
			c0,0.2,0.1,0.4,0.1,0.6c0,0.2,0.1,0.3,0.2,0.5L315.2,174z M312.5,166.6l0.4,2.8l0.6-0.1c0.3,0,0.5-0.1,0.6-0.3s0.2-0.4,0.1-0.8
			l-0.1-0.9c0-0.3-0.1-0.6-0.3-0.7c-0.1-0.1-0.3-0.2-0.6-0.1L312.5,166.6z"/>
		<path class="st8" d="M318.1,168.3l1.9-0.3l0.2,1.3l-1.9,0.3l0.4,2.6l2.4-0.4l0.2,1.3l-3.9,0.6l-1.4-9l3.9-0.6l0.2,1.3l-2.4,0.4
			L318.1,168.3z"/>
		<path class="st8" d="M326.7,172.3l-1.4,0.2l-0.5-1.6l-1.7,0.3l0,1.7l-1.3,0.2l0.1-9.2l2.1-0.3L326.7,172.3z M323.1,169.9l1.4-0.2
			l-1.4-4.4L323.1,169.9z"/>
		<path class="st8" d="M331,168.2l0.2,1.2c0.1,0.7,0,1.3-0.3,1.8c-0.3,0.4-0.8,0.7-1.5,0.8s-1.2,0-1.7-0.3c-0.4-0.3-0.7-0.9-0.8-1.6
			l-0.7-4.7c-0.1-0.7,0-1.3,0.3-1.8c0.3-0.4,0.8-0.7,1.5-0.8s1.2,0,1.7,0.3c0.4,0.3,0.7,0.9,0.8,1.6l0.1,0.9l-1.3,0.2l-0.1-1
			c0-0.3-0.2-0.5-0.3-0.7c-0.2-0.1-0.3-0.2-0.6-0.1s-0.4,0.1-0.5,0.3c-0.1,0.2-0.1,0.4-0.1,0.7l0.7,4.9c0,0.3,0.2,0.5,0.3,0.7
			c0.2,0.1,0.3,0.1,0.6,0.1c0.2,0,0.4-0.1,0.5-0.3c0.1-0.1,0.1-0.4,0.1-0.7l-0.2-1.3L331,168.2z"/>
		<path class="st8" d="M330.6,162.5l4.4-0.7l0.2,1.3l-1.5,0.2l1.2,7.7l-1.4,0.2l-1.2-7.7l-1.5,0.2L330.6,162.5z"/>
	</g>
</g>
<g id="Character_2">
	<g>
		<g>
			<path class="st4" d="M163.1,284.7c0,0-23.1,6.7-22.2,23.9c0.9,17.2,5.4,16.2-4.4,21.9c-9.8,5.7-0.6,16.4-3.3,21.2
				c-2.8,4.8-20.3,18.1-12.8,25c7.6,6.8,45.7-6.8,59,0s23.8-7.7,27.4-11.4c3.5-3.8-6.8-9.1-6.5-16.7c0.4-7.6,7-49.5-1.5-55.1
				C190.2,287.9,170.4,281.7,163.1,284.7z"/>
			<g>
				<g>
					<path class="st16" d="M245.3,312.5l4.2-15.4c0,0,1.7-10.5,3.1-12.6c1.4-2.1,5-5,5-5s2.6-3.6,4.4-5.1c1.8-1.5,12.5-7.1,13.3-6.7
						c0.8,0.4,2.1,2.9-4.8,6.8c0,0,3.8-0.3,6.9,1c3.1,1.2,5.1,1.6,3.8,2.9c-1.3,1.3-2.4,1.9-7.4,0.6c0,0-3.5,0.4-6.2,0.2l-1.5,1.8
						c0,0,2.4-1,3.7,1.2c1.4,2.2,3,5,2.3,6.6c0,0,5.3-2.8,6.8-0.5c1.5,2.3-3.1,4.4-4.9,5.8c-1.8,1.4-6.2,5.1-6.2,5.1s-3.1,7-9.6,9.6
						c0,0-1.4,2.9-0.7,5.6L245.3,312.5z"/>
					<polyline class="st5" points="267.2,276.4 264.9,278.2 262.3,282.7 260.6,288.5 					"/>
					<path class="st5" d="M259.1,288.5c0,0,3.6,4.4,6.2,5c0,0,2.7-1.2,3.3-1.7c0.5-0.4,1.2-1.2,2.6-2.3"/>
					<path class="st5" d="M263.1,288.2l0.3-1.2c0,0,1.8,0.4,3.3,0l0.8,1.2C267.6,288.2,265.7,287.8,263.1,288.2z"/>
					<path class="st5" d="M266.8,283.2c0,0-0.6,1.2-0.5,3"/>
					<path class="st5" d="M269,287c0,0-2.8,2.2-2.4,6"/>
					<polyline class="st5" points="264.7,282.1 263.1,283.8 263.1,285.7 					"/>
				</g>
				<g>
					<defs>
						<path id="XMLID_7_" d="M192.2,360.6c0,0,34.9,0.9,39.9,4.6c0,0-3.1-5,2.5-3.4c0,0,0.4-42.8,8-43.4l2.5-9.7
							c0.2-0.7,1-1.1,1.7-0.7c2.1,1.3,6.4,3.6,10.5,3.7c0.6,0,1.1,0.5,1.1,1.1v8.4c0,0,3.9,1,3.7,6.6c-0.2,5.6-3.7,56.1-10.2,61.6
							c-6.4,5.5-51.5,2.7-51.5,2.7S189.3,381.3,192.2,360.6z"/>
					</defs>
					<use xlink:href="#XMLID_7_"  style="overflow:visible;fill:#92E3A9;"/>
					<clipPath id="XMLID_33_">
						<use xlink:href="#XMLID_7_"  style="overflow:visible;"/>
					</clipPath>
					<path class="st35" d="M203.1,371.8c0,0,10.7,16.9,27.6,15.3c16.9-1.6,11.9-8,14.6-10.5c2.6-2.5,11,1.2,15.3-30.3
						c4.3-31.5,13.2,22.2,13.2,22.2l-2.6,26.2l-16,11.6l-15,2.9l-35.1,2.9l-10.6-29.9L203.1,371.8z"/>
					
						<use xlink:href="#XMLID_7_"  style="overflow:visible;fill:none;stroke:#263238;stroke-width:0.75;stroke-linecap:round;stroke-linejoin:round;stroke-miterlimit:10;"/>
				</g>
				<path class="st5" d="M236.1,369.9c0,0,2.5,1.9,4.1,8"/>
				<path class="st5" d="M238.2,365.2c0,0,5.1,2.3,8.3,6.6"/>
				<path class="st5" d="M245.3,319.7c0,0,3.3,2.3,9.9,3.1"/>
			</g>
			<g>
				<defs>
					<path id="XMLID_6_" d="M129,446.2c0,0-27-57-6.3-75.1c20.7-18.1,64.4-13.3,71.7-11.1c7.4,2.2,14.8,23.7,15.2,35.1
						c0.4,11.5,7.6,11.3-2.7,51H129z"/>
				</defs>
				<use xlink:href="#XMLID_6_"  style="overflow:visible;fill:#92E3A9;"/>
				<clipPath id="XMLID_34_">
					<use xlink:href="#XMLID_6_"  style="overflow:visible;"/>
				</clipPath>
				<path class="st36" d="M137.8,403.8c0,0,14-15.3,14.9-10.3c0.9,5-16.3,34.2,1.5,41.9c17.8,7.8,30.3-0.8,40.3,0
					c9.9,0.8,14.3,6.8,24.4,7.4c10.2,0.6,8,15,8,15l-28.3,6.1h-58.8l-21.3-5.3l-5.9-10.4v-23.3L137.8,403.8z"/>
				
					<use xlink:href="#XMLID_6_"  style="overflow:visible;fill:none;stroke:#263238;stroke-width:0.75;stroke-linecap:round;stroke-linejoin:round;stroke-miterlimit:10;"/>
			</g>
			<g>
				<path class="st16" d="M155.7,409.4l16.5-5.4c0,0,6.8-10.9,10.4-13.7c3.5-2.8,5.7-3.7,9.2-2l5.9-0.8c0,0,2.5-3.2,5.4-2.5
					c2.9,0.7,13.3,3.9,12.2,6.1c-1.1,2.2-10-1.8-11.3-0.7c0,0,2.9,5.2,2.9,8.4c0,3.2,0.8,8-1,8c-1.8,0-3.3-2-3.2-4.6
					c0,0-0.6,5.7-2.4,5.4c-1.8-0.3-3.1-1.8-2.8-4.2c0,0-4.2,12.9-14.7,12.8l-19.1,7.8C163.7,424,159.8,423.1,155.7,409.4z"/>
				<path class="st5" d="M186.6,403.5c0,0,2.5-5,1.8-7.4l3.6-1.4c0,0,1.5,2.1,2.6,1.5l-0.6,2.8c0,0-2.8,3.4-1.2,5.3
					c1.5,1.9,3.7-2.5,5-3.7c1.2-1.2,1.5-6.7,0.6-8.5c-1-1.8-4.5-1.6-5.6-2.7"/>
				<path class="st5" d="M198,388.3c0,0,3.1-0.4,4.1,1.2c0.9,1.5,1.8,5.1,1.7,7c-0.2,1.8-0.8,4.6-0.8,4.6"/>
				<line class="st5" x1="198" y1="402.2" x2="198.6" y2="399.1"/>
				<path class="st5" d="M200.9,388.6c0,0,1.8-0.8,3,1.8"/>
				<polygon class="st5" points="194.4,397.7 192.8,398.3 193.6,399.8 194.1,399.1 				"/>
				<path class="st5" d="M177.1,411.4c0,0,0.7,1.8,4.1,3.7"/>
			</g>
			<g>
				<defs>
					<path id="XMLID_5_" d="M163.2,338.2l-5.4,15.7c0,0,11.5,12.2,21.5,13.1l4.1,4.8l4.4-5.3l-1.1-6.8l-1.8-2.9l-1.5-0.5l3.1-8.6
						l-10-13.7h-9.7L163.2,338.2z"/>
				</defs>
				<use xlink:href="#XMLID_5_"  style="overflow:visible;fill:#FFFFFF;"/>
				<clipPath id="XMLID_35_">
					<use xlink:href="#XMLID_5_"  style="overflow:visible;"/>
				</clipPath>
				<path class="st37" d="M186.5,347.6l-10-13.7h-9.7l-1.1,1.4c0.7,3.1,2.1,8.4,4.5,11.6c2.5,3.3,9.7,7.1,13.4,9L186.5,347.6z"/>
				
					<use xlink:href="#XMLID_5_"  style="overflow:visible;fill:none;stroke:#263238;stroke-width:0.75;stroke-linecap:round;stroke-linejoin:round;stroke-miterlimit:10;"/>
			</g>
			<path class="st16" d="M166,330.5c0,0,1.9,11.4,6.8,15.1c5,3.7,22.9,10.5,26.3,7.3c3.3-3.2,6.7-13.6,7.4-18.9s-1.1-14.2-0.7-19.6
				c0.4-5.4,0.7-14.4-6.7-17.2c-7.4-2.8-34.4,10.6-34.4,10.6l-1.7,10.3L166,330.5z"/>
			<path class="st5" d="M200.9,314.4c0,0-1.1,4.5,0,6.2c0.8,1.1,2.7,3.8,3.9,5.5c0.5,0.7,0.3,1.7-0.4,2.2c-1.4,1-3.5,2.6-4,3.7
				c-0.1,0.3,0,1.4,0,1.4"/>
			<path class="st5" d="M200.5,336.1c0,0-5,4-10-1.1"/>
			<path class="st5" d="M186.5,316.1c0,0,2.2-4.9,9.9-2.4"/>
			<path class="st5" d="M201.2,313c0,0,1.8-1.8,3.9,0"/>
			<path class="st8" d="M194.4,317.9c0.3,1.1,0.1,2.2-0.5,2.4c-0.6,0.2-1.3-0.7-1.6-1.8c-0.3-1.1-0.1-2.2,0.5-2.4
				C193.4,316,194.1,316.8,194.4,317.9z"/>
			<path class="st8" d="M204.9,316.7c0.2,1,0,2-0.5,2.1c-0.5,0.1-1.1-0.6-1.3-1.7c-0.2-1,0-2,0.5-2.1
				C204.1,314.9,204.7,315.7,204.9,316.7z"/>
			<path class="st4" d="M191.8,283.9c0,0,9.4-5.4,23.6,7.1c12.8,11.3-2.8,4.8-2.8,4.8s6.5,12.1-0.4,14.6c-7,2.5-3.1-4.8-18.7-8.4
				c0,0,6.9,5.6,2.2,8.9c-6.1,4.2-10.1-3-14.9-1.3c0,0-2.6,14.2-7.8,16.6c0,0-5,19.1-11.7,17.9c-6.6-1.2,1.5-3.8-2.2-15.5
				c-3.7-11.6-11.7-22.7-5.5-35.3C159.5,280.9,181.4,279.5,191.8,283.9z"/>
			<g>
				<path class="st12" d="M132.7,368c-5.2,0.1-10,2-12.2,5.4c-8.2,12.3-18.5,35.1-25.1,50.3c-6.7,15.2-3.3,24.4,0,25.5
					c3.3,1.1,15.2,4.8,38.1-6.3c22.9-11.1,20.7-13.3,20.7-13.3l13.2-6.1c0.5-0.2,0.6-0.9,0.1-1.3c-2.1-1.5-6.3-5.7-6.6-15.6
					c0-0.5-0.5-0.9-1-0.7l-12.3,5c0,0-1.8-2-12.6,2c0,0,10.7-7.8,15.5-13.7c2.3-2.8,3-8,2.2-13.3"/>
				<path class="st5" d="M112.6,420.5c3.5-2.9,18.5-4.4,18.7-6.7c0.2-2.2-12.6,3.1-12.4,0"/>
				<path class="st5" d="M142.5,391.1c0,0,3.7,5.9,3.7,9.2c0,3.3,4.4-5.4,4.4-9.2"/>
				<path class="st5" d="M148.3,413.3c0,0-0.4,4.4,3.7,11.8"/>
			</g>
			<path class="st12" d="M146,359.8c0,0,3.8-11.2,8.2-9.6c4.4,1.7,26.1,11,29.1,21.6c0,0-4.4-5.9-8.3,0S167.5,372.5,146,359.8z"/>
			<path class="st12" d="M184.9,356.8c0.5,2.1,1.7,8.7-1.5,15.1c0,0,3.3-4.3,7.2-1.4c3.9,2.9,0-9.3-1.8-11.6
				c-0.7-0.8-3.5-2.4-3.5-2.4C185.1,356.3,184.9,356.5,184.9,356.8z"/>
			<path class="st5" d="M183.4,356.3c0,0-1.2,3.7,0,5.9"/>
			<g>
				<path class="st14" d="M169.1,447.1h44.8v4.1h-44.5c-0.9,0-1.7-0.8-1.7-1.7v-1.1C167.8,447.7,168.4,447.1,169.1,447.1z"/>
				<path class="st4" d="M235.5,379.8h-5.6c-1.8,0-3.3,1.2-3.8,2.9l-18.4,63.4c-0.7,2.5,1.2,5.1,3.8,5.1h4.9L235.5,379.8z"/>
				<path class="st14" d="M307.3,451.2h-93.9c-2.7,0-4.6-2.5-3.8-5.1l18.4-63.4c0.5-1.7,2.1-2.9,3.8-2.9h93.9c2.7,0,4.6,2.5,3.8,5.1
					l-18.4,63.4C310.6,450,309.1,451.2,307.3,451.2z"/>
			</g>
			<path class="st4" d="M165.6,335.3c0,0-7.5,11.8-3.1,22.4c4.4,10.6,0.6,16.1-4.6,12.1c-5.2-4-7.6-8.4-30.9-4.7l15.5-15.2
				l10.5-14.1l9.9-4.6L165.6,335.3z"/>
			<g>
				<path class="st9" d="M211.5,302.1c0.7,1.3,1,2.6,0.9,3.5"/>
				<path class="st9" d="M181.2,290c14-0.2,22.8,4,27.4,8.4"/>
				<path class="st9" d="M141.9,350.3c0.6-2.2,0.9-4.9,0.7-8c-1.1-12.5,8.9-8.2,11.1-24.1c2-14.3,4.4-25.6,21.6-27.8"/>
				<path class="st9" d="M135.6,359.2c0,0,2-1.1,3.9-3.7"/>
			</g>
			<g>
				<path class="st9" d="M155.4,358.7c0.4,1.1,0.9,2.3,1.6,3.5"/>
				<g>
					<path class="st9" d="M167.7,300.2c-6.8,6-0.8,17.8-4,25c-3,6.7-11,16.6-9.6,28.3"/>
					<path class="st9" d="M193.4,306.9c0,0-9.4-13.6-21.9-8.9"/>
				</g>
			</g>
		</g>
		<g>
			<defs>
				<path id="XMLID_4_" d="M394.4,287.7H276.9c-2.4,0-4.4-2-4.4-4.4V274c0-2.4,2-4.4,4.4-4.4h117.5c2.4,0,4.4,2,4.4,4.4v9.3
					C398.8,285.7,396.8,287.7,394.4,287.7z"/>
			</defs>
			<use xlink:href="#XMLID_4_"  style="overflow:visible;fill:#FFFFFF;"/>
			<clipPath id="XMLID_36_">
				<use xlink:href="#XMLID_4_"  style="overflow:visible;"/>
			</clipPath>
			<path class="st38" d="M394.4,287.7H276.9c-2.4,0-4.4-2-4.4-4.4V274c0-2.4,2-4.4,4.4-4.4h117.5c2.4,0,4.4,2,4.4,4.4v9.3
				C398.8,285.7,396.8,287.7,394.4,287.7z"/>
			
				<use xlink:href="#XMLID_4_"  style="overflow:visible;fill:none;stroke:#263238;stroke-width:0.75;stroke-linecap:round;stroke-linejoin:round;stroke-miterlimit:10;"/>
		</g>
		<g class="st29">
			<path class="st30" d="M326.8,273.6h2.2c1.5,0,2.2,0.8,2.2,2.3v0.9c0,1.5-0.7,2.3-2.2,2.3h-0.7v3.8h-1.5V273.6z M328.9,277.8
				c0.5,0,0.7-0.2,0.7-0.9v-1.1c0-0.7-0.3-0.9-0.7-0.9h-0.7v2.9H328.9z"/>
			<path class="st30" d="M331.9,273.6h1.5v3.8h1.6v-3.8h1.5v9.3H335v-4.2h-1.6v4.2h-1.5V273.6z"/>
			<path class="st30" d="M337.5,273.6h2.2c1.5,0,2.2,0.8,2.2,2.3v0.9c0,1.5-0.7,2.3-2.2,2.3H339v3.8h-1.5V273.6z M339.7,277.8
				c0.5,0,0.7-0.2,0.7-0.9v-1.1c0-0.7-0.3-0.9-0.7-0.9H339v2.9H339.7z"/>
		</g>
	</g>
	<g>
		<path class="st8" d="M322.7,282.9h-1.4l-0.2-1.7h-1.8l-0.2,1.7h-1.3l1.5-9.1h2.1L322.7,282.9z M319.4,280h1.4l-0.7-4.6L319.4,280z
			"/>
		<path class="st8" d="M323.3,275.2h1.9c0.6,0,1.1,0.2,1.4,0.5c0.3,0.3,0.4,0.8,0.4,1.4v3.9c0,0.6-0.1,1.1-0.4,1.4
			c-0.3,0.3-0.8,0.5-1.4,0.5h-1.9V275.2z M324.5,276.3v5.5h0.7c0.2,0,0.3-0.1,0.5-0.2c0.1-0.1,0.2-0.3,0.2-0.6v-4
			c0-0.3-0.1-0.5-0.2-0.6c-0.1-0.1-0.3-0.2-0.5-0.2H324.5z"/>
		<path class="st8" d="M327.7,277c0-0.6,0.2-1.1,0.5-1.4c0.3-0.3,0.8-0.5,1.4-0.5c0.6,0,1,0.2,1.4,0.5c0.3,0.3,0.5,0.8,0.5,1.4v4
			c0,0.6-0.2,1.1-0.5,1.4c-0.3,0.3-0.8,0.5-1.4,0.5c-0.6,0-1-0.2-1.4-0.5c-0.3-0.3-0.5-0.8-0.5-1.4V277z M328.9,281.1
			c0,0.3,0.1,0.5,0.2,0.6c0.1,0.1,0.3,0.2,0.5,0.2c0.2,0,0.3-0.1,0.5-0.2c0.1-0.1,0.2-0.3,0.2-0.6V277c0-0.3-0.1-0.5-0.2-0.6
			c-0.1-0.1-0.3-0.2-0.5-0.2c-0.2,0-0.3,0.1-0.5,0.2c-0.1,0.1-0.2,0.3-0.2,0.6V281.1z"/>
		<path class="st8" d="M333.2,277.3v5.6h-1.1v-7.7h1.5l1.2,4.6v-4.6h1.1v7.7h-1.2L333.2,277.3z"/>
		<path class="st8" d="M336.8,275.2h1.2v7.7h-1.2V275.2z"/>
		<path class="st8" d="M338.8,277c0-0.6,0.1-1.1,0.4-1.4c0.3-0.3,0.7-0.5,1.3-0.5c0.6,0,1,0.2,1.3,0.5c0.3,0.3,0.4,0.8,0.4,1.4v0.2
			h-1.1V277c0-0.3-0.1-0.5-0.2-0.6c-0.1-0.1-0.3-0.2-0.4-0.2c-0.2,0-0.3,0.1-0.4,0.2c-0.1,0.1-0.2,0.3-0.2,0.6
			c0,0.3,0.1,0.5,0.2,0.7c0.1,0.2,0.3,0.4,0.4,0.6c0.2,0.2,0.4,0.4,0.6,0.5c0.2,0.2,0.4,0.4,0.6,0.6c0.2,0.2,0.3,0.5,0.4,0.7
			s0.2,0.6,0.2,1c0,0.6-0.2,1.1-0.5,1.4c-0.3,0.3-0.8,0.5-1.3,0.5c-0.6,0-1-0.2-1.3-0.5c-0.3-0.3-0.5-0.8-0.5-1.4v-0.5h1.1v0.5
			c0,0.3,0.1,0.5,0.2,0.6c0.1,0.1,0.3,0.2,0.5,0.2c0.2,0,0.3-0.1,0.5-0.2c0.1-0.1,0.2-0.3,0.2-0.6c0-0.3-0.1-0.5-0.2-0.7
			c-0.1-0.2-0.3-0.4-0.4-0.6s-0.4-0.4-0.6-0.5c-0.2-0.2-0.4-0.4-0.6-0.6c-0.2-0.2-0.3-0.5-0.4-0.7
			C338.8,277.7,338.8,277.4,338.8,277z"/>
		<path class="st8" d="M342.7,281.6c0.1,0,0.2,0,0.2,0s0.2,0,0.2,0c0.2,0,0.4-0.1,0.6-0.2s0.2-0.3,0.2-0.7v-6.9h1.4v6.8
			c0,0.5-0.1,0.8-0.2,1.1c-0.1,0.3-0.3,0.5-0.5,0.7s-0.4,0.3-0.7,0.4s-0.5,0.1-0.8,0.1c-0.1,0-0.2,0-0.4,0c-0.1,0-0.2,0-0.3,0V281.6
			z"/>
		<path class="st8" d="M346.3,276c0-0.7,0.2-1.3,0.5-1.7c0.4-0.4,0.9-0.6,1.6-0.6s1.2,0.2,1.6,0.6s0.5,1,0.5,1.7v0.3h-1.4v-0.4
			c0-0.3-0.1-0.6-0.2-0.7c-0.1-0.1-0.3-0.2-0.5-0.2c-0.2,0-0.4,0.1-0.5,0.2c-0.1,0.1-0.2,0.4-0.2,0.7c0,0.3,0.1,0.6,0.2,0.8
			s0.3,0.5,0.5,0.7c0.2,0.2,0.4,0.4,0.7,0.6c0.2,0.2,0.5,0.4,0.7,0.7s0.4,0.5,0.5,0.9c0.1,0.3,0.2,0.7,0.2,1.1
			c0,0.7-0.2,1.3-0.5,1.7s-0.9,0.6-1.6,0.6s-1.2-0.2-1.6-0.6c-0.4-0.4-0.5-1-0.5-1.7v-0.6h1.4v0.7c0,0.3,0.1,0.6,0.2,0.7
			c0.1,0.1,0.3,0.2,0.5,0.2c0.2,0,0.4-0.1,0.5-0.2c0.1-0.1,0.2-0.4,0.2-0.7c0-0.3-0.1-0.6-0.2-0.8c-0.1-0.2-0.3-0.5-0.5-0.7
			c-0.2-0.2-0.4-0.4-0.7-0.6c-0.2-0.2-0.5-0.4-0.7-0.7c-0.2-0.3-0.4-0.5-0.5-0.9C346.3,276.8,346.3,276.4,346.3,276z"/>
	</g>
</g>
</svg>
