<?xml version="1.0" encoding="utf-8"?>
<!-- Generator: Adobe Illustrator 24.3.0, SVG Export Plug-In . SVG Version: 6.00 Build 0)  -->
<svg version="1.1" id="Layer_1" xmlns="http://www.w3.org/2000/svg" xmlns:xlink="http://www.w3.org/1999/xlink" x="0px" y="0px"
	 viewBox="0 0 340.6 304.9" style="enable-background:new 0 0 340.6 304.9;" xml:space="preserve">
<style type="text/css">
	.st0{fill:#72B5E8;}
	.st1{fill:#A8CFF0;}
	.st2{fill:#D1EBFF;}
	.st3{fill:#FFFFFF;}
	.st4{fill:#EB4680;}
	.st5{fill:#D62D69;}
	.st6{opacity:0.7;fill:#FFFFFF;}
	.st7{fill:#3F92D1;}
	.st8{fill:#4F9FDB;}
	.st9{fill:#03336E;}
	.st10{fill:#001A46;}
	.st11{fill:#FFCC00;}
	.st12{fill:#0FBAB8;}
	.st13{fill:#2672AB;}
	.st14{fill:#084C94;}
	.st15{fill:#0BA19F;}
	.st16{fill:#FFD70F;}
	.st17{fill:#D99F00;}
	.st18{fill:#B08100;}
	.st19{fill:#FFDE17;}
	.st20{fill:#3ECFCD;}
	.st21{fill:#F76195;}
	.st22{opacity:0.2;fill:#92B4D1;}
</style>
<g>
	<g>
		<path class="st0" d="M288.6,176.7c-7.7-4.4-13.9-15.2-13.9-24c0-3.3,0.9-5.8,2.3-7.5c-4.2,0.3-7.1,3.8-7.1,9.8
			c0,8.8,6.2,19.5,13.9,24c4.8,2.8,9,2.4,11.5-0.4C293.4,178.8,291.1,178.2,288.6,176.7z"/>
		<path class="st1" d="M302.1,173.8c0-1.1-0.1-2.2-0.2-3.4l5.6-0.7c-0.6-2.8-1.4-5.7-2.5-8.5l-6.4-1.9c-1.1-2.4-2.5-4.7-4-6.9
			l1.5-6.5c-1.9-2.4-4-4.5-6.1-6.5l-3.4,4.5c-0.9-0.7-1.9-1.3-2.8-1.9c-1-0.6-1.9-1-2.8-1.4l-3.4-8.4c-2.2-0.6-4.2-0.8-6.1-0.6
			l1.5,8.2c-1.5,0.4-2.9,1.2-4,2.3l-6.4-5.5c-1.1,1.5-2,3.4-2.5,5.6l5.6,7.2c-0.1,1-0.2,2-0.2,3.1c0,1.1,0.1,2.2,0.2,3.4l-5.6,0.7
			c0.6,2.8,1.4,5.7,2.5,8.5l6.4,1.9c1.1,2.4,2.5,4.7,4,6.9l-1.5,6.5c1.9,2.4,4,4.5,6.1,6.5l3.4-4.5c0.9,0.7,1.9,1.3,2.8,1.9
			c1,0.6,1.9,1,2.8,1.4l3.4,8.4c2.2,0.6,4.2,0.8,6.1,0.6l-1.5-8.2c1.5-0.4,2.9-1.2,4-2.3l6.4,5.5c1.1-1.5,2-3.4,2.5-5.6l-5.6-7.2
			C302,176,302.1,174.9,302.1,173.8z M283.9,179c-7.7-4.4-13.9-15.2-13.9-24c0-8.8,6.2-12.3,13.9-7.9c7.7,4.4,13.9,15.2,13.9,24
			C297.8,179.9,291.6,183.5,283.9,179z"/>
		<polygon class="st0" points="286.3,137.7 282.9,129.2 277.5,132.3 280.9,140.8 		"/>
		<path class="st2" d="M280.9,140.8c0.9,0.4,1.9,0.8,2.8,1.4c1,0.6,1.9,1.2,2.8,1.9l3.4-4.5l0,0c0,0-0.6-0.4-0.9-0.5
			c-1-0.6-1.9-1-2.8-1.4L280.9,140.8z"/>
		<path class="st2" d="M282.9,129.2c-2.2-0.6-4.2-0.8-6.1-0.6l-5.4,3.1c1.9-0.2,4,0,6.1,0.6L282.9,129.2z"/>
		<path class="st2" d="M301.5,142.9c-1.9-2.4-4-4.5-6.1-6.5l-5.4,3.1c2.2,1.9,4.2,4.1,6.1,6.5L301.5,142.9z"/>
		<polygon class="st0" points="296.1,146 294.6,152.5 300,149.4 301.5,142.9 		"/>
		<path class="st0" d="M294.6,152.5c1.5,2.2,2.9,4.5,4,6.9l5.4-3.1c-1.1-2.4-2.5-4.7-4-6.9L294.6,152.5z"/>
		<polygon class="st2" points="298.6,159.3 305,161.3 310.3,158.2 303.9,156.2 		"/>
		<path class="st0" d="M305,161.3c1.1,2.8,2,5.7,2.5,8.5l5.4-3.1c-0.6-2.8-1.4-5.7-2.5-8.5L305,161.3z"/>
		<path class="st0" d="M272.9,139.9l-0.4-2.4l-4.6-3.9l-5.4,3.1l6.4,5.5C270,141.1,271.4,140.3,272.9,139.9z"/>
		<path class="st0" d="M307.5,184.1c-0.6,2.2-1.4,4-2.5,5.6l5.4-3.1c1.1-1.5,2-3.4,2.5-5.6L307.5,184.1z"/>
		<path class="st0" d="M307.3,173.8c0.1-1,0.2-2,0.2-3.1c0-0.3,0-0.7,0-1l-5.6,0.7c0.1,1.1,0.2,2.3,0.2,3.4c0,1.1-0.1,2.1-0.2,3.1
			L307.3,173.8z"/>
		<polygon class="st2" points="301.9,176.9 307.5,184.1 312.9,181 307.3,173.8 		"/>
		<path class="st0" d="M298.6,184.2c-1.1,1.1-2.5,1.9-4,2.3l1.5,8.2l5.4-3.1l-1.1-5.8L298.6,184.2z"/>
		<path class="st2" d="M265.4,153.5l-5.4,3.2l5.6-0.7C265.5,155.1,265.4,154.3,265.4,153.5z"/>
		<path class="st0" d="M280.9,182.4l-3.4,4.5l5.4-3.1C282.2,183.4,281.6,182.9,280.9,182.4z"/>
		<g>
			<path class="st3" d="M272.2,140.3L272.2,140.3c-0.3,0-0.5,0.1-0.8,0.3C271.7,140.5,272,140.4,272.2,140.3z"/>
			<path class="st3" d="M264.9,156.1l-4.7,0.6c0,0.1,0,0.2,0.1,0.3l4.6-0.6C264.9,156.2,264.9,156.1,264.9,156.1z"/>
			<path class="st3" d="M295.8,146.4l-1.5,6.5c1.5,2.2,2.9,4.5,4,6.9l6.4,1.9c1.1,2.7,1.9,5.5,2.5,8.2l0.6-0.1
				c-0.6-2.8-1.4-5.7-2.5-8.5l-6.4-1.9c-1.1-2.4-2.5-4.7-4-6.9l1.5-6.5c-1.9-2.4-4-4.5-6.1-6.5l-0.2,0.7
				C292.1,142.1,294,144.1,295.8,146.4z"/>
			<path class="st3" d="M284,178.9c-7.7-4.4-13.9-15.2-13.9-24c0-3.9,1.2-6.7,3.2-8.3c-2.3,1.5-3.8,4.5-3.8,8.7
				c0,8.8,6.2,19.5,13.9,24c3.9,2.2,7.4,2.4,9.9,1c-0.2,0.1-0.4,0.1-0.6,0.1C290.3,181.3,287.3,180.9,284,178.9z"/>
			<path class="st3" d="M295.6,186.2c0.9-0.3,1.8-0.8,2.5-1.4l-0.2-0.2C297.2,185.3,296.5,185.8,295.6,186.2z"/>
			<path class="st3" d="M268.7,142.3c-0.2,0,0-0.2,0.2-0.4l-6.2-5.2c-0.2,0.2-0.3,0.5,0,0.5L268.7,142.3z"/>
			<path class="st3" d="M294.4,186.9l1.5,7.9c-0.2,0,0.2,0,0.5,0l-1.5-8.1C294.6,186.7,294.3,186.8,294.4,186.9z"/>
			<path class="st3" d="M302.4,173.8c0-1-0.1-2-0.2-3.1l-0.6,0c0.1,1.1,0.2,2.3,0.2,3.4c0,1.1-0.1,2.1-0.2,3.1l5.6,7.2
				c-0.5,1.8-1.2,3.4-2,4.8l0,0.4c1.1-1.5,2-3.4,2.5-5.6l-5.6-7.2C302.3,175.9,302.4,174.9,302.4,173.8z"/>
			<path class="st3" d="M277.2,132.5l3.4,8.4c0.9,0.4,1.9,0.8,2.8,1.4c1,0.6,1.9,1.2,2.8,1.9l0.1-0.5c-0.8-0.6-1.6-1.1-2.4-1.6
				c-1-0.6-1.9-1-2.8-1.4l-3.4-8.4c-2.2-0.6-4.2-0.8-6.1-0.6l0.1,0.4C273.3,132,275.4,132.1,277.2,132.5z"/>
			<path class="st3" d="M280.3,182.8l-2.9,3.7c0.1,0.1,0.2,0.2,0.4,0.3l2.9-3.8C280.5,183,280.4,182.9,280.3,182.8z"/>
		</g>
	</g>
	<g>
		<path class="st0" d="M286.6,110.7c-11.5-6.7-20.9-22.8-20.9-36c0-4.9,1.3-8.7,3.5-11.2c-6.3,0.5-10.6,5.8-10.6,14.7
			c0,13.2,9.4,29.4,20.9,36c7.2,4.2,13.6,3.6,17.4-0.7C293.9,113.7,290.4,112.9,286.6,110.7z"/>
		<path class="st1" d="M306.9,106.3c0-1.7-0.1-3.4-0.4-5.1l8.4-1.1c-0.9-4.3-2.2-8.5-3.8-12.8l-9.6-2.9c-1.7-3.6-3.7-7.1-6-10.3
			l2.3-9.7c-2.9-3.6-5.9-6.8-9.2-9.7l-5.2,6.7c-1.4-1-2.8-2-4.2-2.9c-1.4-0.8-2.8-1.5-4.2-2l-5.2-12.7c-3.3-0.9-6.4-1.2-9.2-0.9
			l2.3,12.4c-2.3,0.6-4.3,1.8-6,3.4l-9.6-8.2c-1.7,2.3-3,5.1-3.8,8.4l8.4,10.8c-0.2,1.5-0.4,3-0.4,4.7c0,1.7,0.1,3.4,0.4,5.1
			l-8.4,1.1c0.9,4.3,2.2,8.5,3.8,12.8l9.6,2.9c1.7,3.6,3.7,7.1,6,10.3l-2.3,9.7c2.9,3.6,5.9,6.8,9.2,9.7l5.2-6.7
			c1.4,1,2.8,2,4.2,2.9c1.4,0.8,2.8,1.5,4.2,2l5.2,12.7c3.3,0.9,6.4,1.2,9.2,0.9l-2.3-12.4c2.3-0.6,4.3-1.8,6-3.4l9.6,8.2
			c1.7-2.3,3-5.1,3.8-8.4l-8.4-10.8C306.8,109.5,306.9,108,306.9,106.3z M279.5,114.2c-11.5-6.7-20.9-22.8-20.9-36
			s9.4-18.6,20.9-11.9c11.5,6.7,20.9,22.8,20.9,36S291.1,120.8,279.5,114.2z"/>
		<polygon class="st0" points="283.1,51.9 277.9,39.2 269.9,43.9 275,56.6 		"/>
		<path class="st2" d="M275,56.6c1.4,0.6,2.8,1.2,4.2,2c1.4,0.8,2.8,1.8,4.2,2.9l5.2-6.7l0,0c0,0-0.9-0.5-1.3-0.8
			c-1.4-0.8-2.8-1.5-4.2-2L275,56.6z"/>
		<path class="st2" d="M277.9,39.2c-3.3-0.9-6.4-1.2-9.2-0.9l-8.1,4.6c2.9-0.3,5.9,0,9.2,0.9L277.9,39.2z"/>
		<path class="st2" d="M306,59.8c-2.9-3.6-5.9-6.8-9.2-9.7l-8.1,4.6c3.3,2.9,6.4,6.2,9.2,9.7L306,59.8z"/>
		<polygon class="st0" points="297.9,64.5 295.6,74.2 303.7,69.5 306,59.8 		"/>
		<path class="st0" d="M295.6,74.2c2.3,3.3,4.3,6.7,6,10.3l8.1-4.6c-1.7-3.6-3.7-7.1-6-10.3L295.6,74.2z"/>
		<polygon class="st2" points="301.6,84.5 311.2,87.4 319.3,82.8 309.7,79.9 		"/>
		<path class="st0" d="M311.2,87.4c1.7,4.2,3,8.5,3.8,12.8l8.1-4.6c-0.9-4.3-2.2-8.5-3.8-12.8L311.2,87.4z"/>
		<path class="st0" d="M262.9,55.3l-0.7-3.6l-6.8-5.8l-8.1,4.6l9.6,8.2C258.6,57.1,260.7,55.9,262.9,55.3z"/>
		<path class="st0" d="M315,121.8c-0.9,3.3-2.2,6.1-3.8,8.4l8.1-4.6c1.7-2.3,3-5.1,3.8-8.4L315,121.8z"/>
		<path class="st0" d="M314.7,106.3c0.2-1.5,0.4-3,0.4-4.7c0-0.5,0-1-0.1-1.5l-8.4,1.1c0.2,1.7,0.4,3.4,0.4,5.1
			c0,1.7-0.1,3.2-0.4,4.7L314.7,106.3z"/>
		<polygon class="st2" points="306.6,111 315,121.8 323.1,117.1 314.7,106.3 		"/>
		<path class="st0" d="M301.6,122c-1.7,1.7-3.7,2.8-6,3.4l2.3,12.4l8.1-4.6l-1.6-8.8L301.6,122z"/>
		<path class="st2" d="M251.6,75.7l-8.1,4.8l8.4-1.1C251.8,78.2,251.7,77,251.6,75.7z"/>
		<path class="st0" d="M275,119.3l-5.2,6.7l8.2-4.6C277,120.7,276,120,275,119.3z"/>
		<g>
			<path class="st3" d="M262,55.9l0-0.1c-0.4,0.1-0.8,0.3-1.1,0.5C261.2,56.1,261.6,56,262,55.9z"/>
			<path class="st3" d="M250.9,79.6l-7,0.9c0,0.1,0.1,0.3,0.1,0.4l7-0.9C251,79.9,250.9,79.7,250.9,79.6z"/>
			<path class="st3" d="M297.4,65l-2.3,9.7c2.3,3.2,4.3,6.7,6,10.3l9.6,2.9c1.6,4.1,2.9,8.3,3.7,12.4l1-0.2
				c-0.9-4.3-2.2-8.5-3.8-12.8l-9.6-2.9c-1.7-3.6-3.7-7.1-6-10.3l2.3-9.7c-2.9-3.6-5.9-6.8-9.2-9.7l-0.3,1.1
				C291.8,58.5,294.7,61.6,297.4,65z"/>
			<path class="st3" d="M279.6,114c-11.5-6.7-20.9-22.8-20.9-36c0-5.8,1.8-10.1,4.9-12.5c-3.5,2.3-5.7,6.8-5.7,13.1
				c0,13.2,9.4,29.4,20.9,36c5.8,3.4,11.1,3.7,14.9,1.4c-0.3,0.1-0.6,0.1-0.9,0.2C289.2,117.5,284.6,116.9,279.6,114z"/>
			<path class="st3" d="M297.1,125c1.4-0.5,2.7-1.2,3.8-2.1l-0.4-0.3C299.6,123.5,298.4,124.3,297.1,125z"/>
			<path class="st3" d="M256.7,59c-0.4,0,0-0.3,0.4-0.6l-9.3-7.9c-0.3,0.4-0.5,0.8-0.1,0.8L256.7,59z"/>
			<path class="st3" d="M295.4,125.9l2.2,11.8c-0.3,0,0.2,0,0.7-0.1l-2.3-12.2C295.6,125.6,295.1,125.8,295.4,125.9z"/>
			<path class="st3" d="M307.3,106.3c0-1.5-0.1-3.1-0.3-4.6l-0.8,0.1c0.2,1.7,0.4,3.4,0.4,5.1c0,1.7-0.1,3.2-0.4,4.7l8.4,10.8
				c-0.7,2.7-1.8,5.1-3.1,7.2l0.1,0.7c1.7-2.3,3-5.1,3.8-8.4l-8.4-10.8C307.2,109.5,307.3,107.9,307.3,106.3z"/>
			<path class="st3" d="M269.5,44.2l5.2,12.7c1.4,0.6,2.8,1.2,4.2,2c1.4,0.8,2.8,1.8,4.2,2.9l0.2-0.8c-1.2-0.9-2.4-1.7-3.6-2.4
				c-1.4-0.8-2.8-1.5-4.2-2l-5.2-12.7c-3.3-0.9-6.4-1.2-9.2-0.9l0.1,0.5C263.6,43.4,266.8,43.5,269.5,44.2z"/>
			<path class="st3" d="M274,119.8l-4.3,5.6c0.2,0.2,0.4,0.3,0.5,0.5l4.4-5.7C274.4,120.1,274.2,120,274,119.8z"/>
		</g>
	</g>
	<path class="st4" d="M289.7,38.3c0.1-1.3,1-1.9,2.1-1.3c1.1,0.6,1.9,2.2,1.8,3.5c-0.1,1.3-1,1.9-2.1,1.3
		C290.5,41.2,289.7,39.6,289.7,38.3z"/>
	<path class="st4" d="M283.7,198.3c0-0.9,0.7-1.3,1.4-0.9c0.7,0.4,1.3,1.5,1.2,2.4c0,0.9-0.7,1.3-1.4,0.9
		C284.2,200.3,283.7,199.2,283.7,198.3z"/>
	<g>
		<path class="st4" d="M322.8,133.6c-0.2,0-0.3-0.1-0.4-0.2c-0.1-0.2-0.1-0.4,0-0.6l2.4-4.1c0.1-0.2,0.4-0.3,0.7-0.2
			c0.2,0.1,0.3,0.4,0.2,0.7l-1.8,3l3.5-1.1c0.3-0.1,0.5,0.1,0.6,0.3c0.1,0.3-0.1,0.5-0.3,0.6l-4.8,1.5
			C322.9,133.6,322.9,133.6,322.8,133.6z"/>
	</g>
	<g>
		<path class="st5" d="M281.3,151.8c1.9,1.1,3.5,3.2,4.5,5.4c0,0,1.1-0.3,1.5-0.5c0.9-0.4,2.1-0.2,3.4,0.5c2.9,1.7,5.3,5.8,5.3,9.1
			c0,6.1-10.5,8.2-10.5,8.2s-10-13.3-10-19.5c0-1.7-0.7-2.2,0.2-2.7c0.1,0,2-1.1,2.1-1.1C278.8,150.9,280,151,281.3,151.8z"/>
		<path class="st4" d="M279.6,152.7c2,1.2,3.8,3.5,4.7,6c0.9-1.4,2.6-1.7,4.7-0.6c2.9,1.7,5.3,5.8,5.3,9.1c0,6.1-10,7.9-10,7.9
			s-10-13.3-10-19.5C274.3,152.4,276.6,151,279.6,152.7z"/>
		<g>
			<path class="st6" d="M279.3,152.8c2,1.2,4,3.5,4.9,6c0.2-0.3-0.1-0.2,0.2-0.4c-0.9-2.3-2.6-4.5-4.6-5.6c-1.6-0.9-2.8-1.1-3.8-0.6
				C276.9,152,278.1,152.1,279.3,152.8z"/>
			<path class="st6" d="M289.1,158.1c-1.6-0.9-2.8-0.9-3.6-0.4c0.9-0.3,2-0.1,3.2,0.6c2.9,1.7,5.3,5.8,5.3,9.1c0,2.8-2.2,4.8-4.5,6
				c2.6-1.2,4.9-3,4.9-6.1C294.4,163.9,292,159.8,289.1,158.1z"/>
		</g>
	</g>
	<g>
		<path class="st4" d="M324.4,133l-0.7-0.7c5.4-4.9,8.2-12.9,8.2-23c0-25.3-18-56.3-40.1-69.1l0.5-0.9
			c22.4,12.9,40.6,44.3,40.6,69.9C332.9,119.7,330,127.9,324.4,133z"/>
	</g>
	<g>
		<g>
			<path class="st1" d="M340.2,115.9C340.2,115.9,340.2,115.9,340.2,115.9c-0.3,0-0.5-0.2-0.5-0.5c0-0.3,0-0.7,0-1
				c0-0.3,0.2-0.5,0.5-0.5c0.3,0,0.5,0.2,0.5,0.5c0,0.3,0,0.7,0,1C340.7,115.7,340.5,115.9,340.2,115.9z"/>
		</g>
		<g>
			<path class="st1" d="M312.7,150.5c-0.3,0-0.5-0.2-0.5-0.5c0-0.3,0.2-0.5,0.5-0.5c0.7,0,1.3,0,2-0.1c0.3,0,0.5,0.2,0.5,0.5
				c0,0.3-0.2,0.5-0.5,0.5C314.1,150.5,313.4,150.5,312.7,150.5C312.7,150.5,312.7,150.5,312.7,150.5z M309.7,150.4
				C309.7,150.4,309.7,150.4,309.7,150.4c-0.7-0.1-1.4-0.1-2-0.2c-0.3,0-0.5-0.3-0.4-0.6c0-0.3,0.3-0.5,0.6-0.4
				c0.7,0.1,1.3,0.2,1.9,0.2c0.3,0,0.5,0.3,0.5,0.5C310.2,150.2,310,150.4,309.7,150.4z M317.6,150.1c-0.2,0-0.4-0.2-0.5-0.4
				c0-0.3,0.1-0.5,0.4-0.6c0.6-0.1,1.3-0.3,1.9-0.4c0.3-0.1,0.5,0.1,0.6,0.4c0.1,0.3-0.1,0.5-0.4,0.6
				C319.1,149.8,318.4,150,317.6,150.1C317.7,150.1,317.7,150.1,317.6,150.1z M322.4,148.7c-0.2,0-0.4-0.1-0.5-0.3
				c-0.1-0.3,0-0.5,0.3-0.6c0.6-0.2,1.2-0.5,1.8-0.8c0.2-0.1,0.5,0,0.7,0.2c0.1,0.2,0,0.5-0.2,0.7c-0.6,0.3-1.2,0.6-1.8,0.8
				C322.5,148.7,322.5,148.7,322.4,148.7z M326.8,146.4c-0.2,0-0.3-0.1-0.4-0.2c-0.2-0.2-0.1-0.5,0.1-0.7c0.5-0.4,1.1-0.7,1.6-1.1
				c0.2-0.2,0.5-0.1,0.7,0.1c0.2,0.2,0.1,0.5-0.1,0.7c-0.5,0.4-1.1,0.8-1.6,1.2C327,146.4,326.9,146.4,326.8,146.4z M330.6,143.3
				c-0.1,0-0.3,0-0.4-0.1c-0.2-0.2-0.2-0.5,0-0.7c0.5-0.5,0.9-0.9,1.3-1.4c0.2-0.2,0.5-0.2,0.7-0.1c0.2,0.2,0.2,0.5,0.1,0.7
				c-0.4,0.5-0.9,1-1.4,1.5C330.9,143.3,330.8,143.3,330.6,143.3z M333.8,139.5c-0.1,0-0.2,0-0.3-0.1c-0.2-0.2-0.3-0.5-0.1-0.7
				c0.4-0.5,0.7-1.1,1-1.6c0.1-0.2,0.4-0.3,0.7-0.2c0.2,0.1,0.3,0.4,0.2,0.7c-0.3,0.6-0.7,1.1-1.1,1.7
				C334.1,139.4,334,139.5,333.8,139.5z M336.2,135.2c-0.1,0-0.1,0-0.2,0c-0.3-0.1-0.4-0.4-0.2-0.7c0.3-0.6,0.5-1.2,0.8-1.8
				c0.1-0.3,0.4-0.4,0.7-0.3c0.3,0.1,0.4,0.4,0.3,0.7c-0.3,0.6-0.5,1.2-0.8,1.8C336.6,135.1,336.4,135.2,336.2,135.2z M338,130.6
				c0,0-0.1,0-0.2,0c-0.3-0.1-0.4-0.4-0.3-0.6c0.2-0.6,0.4-1.2,0.5-1.9c0.1-0.3,0.3-0.4,0.6-0.4c0.3,0.1,0.4,0.3,0.4,0.6
				c-0.2,0.7-0.4,1.3-0.6,1.9C338.5,130.4,338.3,130.6,338,130.6z M339.3,125.8C339.2,125.8,339.2,125.8,339.3,125.8
				c-0.4-0.1-0.5-0.3-0.5-0.6c0.1-0.6,0.2-1.3,0.3-1.9c0-0.3,0.3-0.5,0.6-0.4c0.3,0,0.5,0.3,0.4,0.6c-0.1,0.7-0.2,1.3-0.3,2
				C339.7,125.6,339.5,125.8,339.3,125.8z M340,120.8C339.9,120.8,339.9,120.8,340,120.8c-0.3,0-0.5-0.3-0.5-0.5
				c0.1-0.6,0.1-1.3,0.2-2c0-0.3,0.2-0.5,0.5-0.5c0.3,0,0.5,0.3,0.5,0.5c0,0.7-0.1,1.3-0.2,2C340.4,120.7,340.2,120.8,340,120.8z"/>
		</g>
		<g>
			<path class="st1" d="M304.8,149.7c0,0-0.1,0-0.1,0c-0.3-0.1-0.7-0.1-1-0.2c-0.3-0.1-0.4-0.3-0.4-0.6c0.1-0.3,0.3-0.4,0.6-0.4
				c0.3,0.1,0.6,0.2,1,0.2c0.3,0.1,0.4,0.3,0.4,0.6C305.2,149.5,305,149.7,304.8,149.7z"/>
		</g>
	</g>
	<g>
		<g>
			<path class="st1" d="M240.8,70.5c-0.2,0-0.4-0.2-0.5-0.4c-0.1-0.3-0.1-0.7-0.2-1c0-0.3,0.1-0.5,0.4-0.6c0.3,0,0.5,0.1,0.6,0.4
				c0.1,0.3,0.1,0.7,0.2,1C241.3,70.2,241.1,70.5,240.8,70.5C240.8,70.5,240.8,70.5,240.8,70.5z"/>
		</g>
		<g>
			<path class="st1" d="M332.9,80.7c-0.2,0-0.4-0.1-0.5-0.3c-0.3-0.6-0.5-1.2-0.8-1.9c-0.1-0.3,0-0.5,0.3-0.7c0.3-0.1,0.5,0,0.7,0.3
				c0.3,0.6,0.5,1.3,0.8,1.9c0.1,0.3,0,0.5-0.3,0.7C333.1,80.7,333,80.7,332.9,80.7z M330.9,76c-0.2,0-0.4-0.1-0.5-0.3
				c-0.3-0.6-0.6-1.2-0.9-1.8c-0.1-0.2,0-0.5,0.2-0.7c0.2-0.1,0.5,0,0.7,0.2c0.3,0.6,0.6,1.2,0.9,1.8c0.1,0.3,0,0.5-0.2,0.7
				C331.1,76,331,76,330.9,76z M328.7,71.5c-0.2,0-0.4-0.1-0.4-0.3c-0.3-0.6-0.6-1.2-0.9-1.8c-0.1-0.2,0-0.5,0.2-0.7
				c0.2-0.1,0.5,0,0.7,0.2c0.3,0.6,0.6,1.2,0.9,1.8c0.1,0.2,0,0.5-0.2,0.7C328.9,71.4,328.8,71.5,328.7,71.5z M326.3,67
				c-0.2,0-0.3-0.1-0.4-0.3c-0.3-0.6-0.7-1.2-1-1.8c-0.1-0.2-0.1-0.5,0.2-0.7c0.2-0.1,0.5-0.1,0.7,0.2c0.3,0.6,0.7,1.2,1,1.8
				c0.1,0.2,0,0.5-0.2,0.7C326.5,67,326.4,67,326.3,67z M240.1,66.5c-0.2,0-0.5-0.2-0.5-0.4c-0.1-0.7-0.2-1.4-0.2-2
				c0-0.3,0.2-0.5,0.4-0.6c0.3,0,0.5,0.2,0.6,0.4c0.1,0.7,0.2,1.3,0.2,2C240.7,66.2,240.5,66.5,240.1,66.5
				C240.2,66.5,240.1,66.5,240.1,66.5z M323.8,62.6c-0.2,0-0.3-0.1-0.4-0.2c-0.4-0.6-0.7-1.1-1.1-1.7c-0.1-0.2-0.1-0.5,0.2-0.7
				c0.2-0.1,0.5-0.1,0.7,0.2c0.4,0.6,0.7,1.1,1.1,1.7c0.1,0.2,0.1,0.5-0.2,0.7C324,62.6,323.9,62.6,323.8,62.6z M239.6,61.5
				c-0.3,0-0.5-0.2-0.5-0.5c0-0.7-0.1-1.4-0.1-2c0-0.3,0.2-0.5,0.5-0.5c0,0,0,0,0,0c0.3,0,0.5,0.2,0.5,0.5c0,0.7,0.1,1.3,0.1,2
				C240.1,61.2,239.9,61.5,239.6,61.5C239.6,61.5,239.6,61.5,239.6,61.5z M321,58.4c-0.2,0-0.3-0.1-0.4-0.2
				c-0.4-0.6-0.8-1.1-1.1-1.7c-0.2-0.2-0.1-0.5,0.1-0.7c0.2-0.2,0.5-0.1,0.7,0.1c0.4,0.6,0.8,1.1,1.1,1.7c0.2,0.2,0.1,0.5-0.1,0.7
				C321.2,58.3,321.1,58.4,321,58.4z M239.5,56.4C239.5,56.4,239.5,56.4,239.5,56.4c-0.3,0-0.5-0.2-0.5-0.5c0-0.7,0-1.4,0-2
				c0-0.3,0.2-0.5,0.5-0.5c0,0,0,0,0,0c0.3,0,0.5,0.2,0.5,0.5c0,0.7,0,1.3,0,2C240,56.2,239.7,56.4,239.5,56.4z M318.1,54.2
				c-0.2,0-0.3-0.1-0.4-0.2c-0.4-0.5-0.8-1.1-1.2-1.6c-0.2-0.2-0.1-0.5,0.1-0.7c0.2-0.2,0.5-0.1,0.7,0.1c0.4,0.5,0.8,1.1,1.2,1.6
				c0.2,0.2,0.1,0.5-0.1,0.7C318.3,54.2,318.2,54.2,318.1,54.2z M239.7,51.4C239.7,51.4,239.7,51.4,239.7,51.4
				c-0.3,0-0.5-0.3-0.5-0.5c0.1-0.7,0.1-1.4,0.2-2c0-0.3,0.3-0.5,0.6-0.4c0.3,0,0.5,0.3,0.4,0.6c-0.1,0.7-0.1,1.3-0.2,2
				C240.2,51.2,239.9,51.4,239.7,51.4z M315,50.2c-0.1,0-0.3-0.1-0.4-0.2c-0.4-0.5-0.8-1-1.3-1.6c-0.2-0.2-0.1-0.5,0.1-0.7
				c0.2-0.2,0.5-0.1,0.7,0.1c0.4,0.5,0.9,1,1.3,1.6c0.2,0.2,0.1,0.5-0.1,0.7C315.2,50.2,315.1,50.2,315,50.2z M311.8,46.4
				c-0.1,0-0.3-0.1-0.4-0.2c-0.4-0.5-0.9-1-1.3-1.5c-0.2-0.2-0.2-0.5,0-0.7c0.2-0.2,0.5-0.2,0.7,0c0.5,0.5,0.9,1,1.4,1.5
				c0.2,0.2,0.2,0.5,0,0.7C312,46.3,311.9,46.4,311.8,46.4z M240.3,46.4C240.3,46.4,240.3,46.4,240.3,46.4c-0.4-0.1-0.5-0.3-0.5-0.6
				c0.1-0.7,0.3-1.3,0.4-2c0.1-0.3,0.3-0.4,0.6-0.4c0.3,0.1,0.4,0.3,0.4,0.6c-0.1,0.6-0.3,1.3-0.4,2
				C240.8,46.2,240.6,46.4,240.3,46.4z M308.3,42.7c-0.1,0-0.3-0.1-0.4-0.2c-0.5-0.5-0.9-1-1.4-1.4c-0.2-0.2-0.2-0.5,0-0.7
				c0.2-0.2,0.5-0.2,0.7,0c0.5,0.5,1,1,1.4,1.4c0.2,0.2,0.2,0.5,0,0.7C308.6,42.6,308.5,42.7,308.3,42.7z M241.5,41.4
				c0,0-0.1,0-0.1,0c-0.3-0.1-0.4-0.4-0.3-0.6c0.2-0.7,0.4-1.3,0.6-1.9c0.1-0.3,0.4-0.4,0.6-0.3c0.3,0.1,0.4,0.4,0.3,0.6
				c-0.2,0.6-0.4,1.3-0.6,1.9C241.9,41.3,241.7,41.4,241.5,41.4z M304.7,39.1c-0.1,0-0.2,0-0.3-0.1c-0.5-0.5-1-0.9-1.5-1.4
				c-0.2-0.2-0.2-0.5,0-0.7c0.2-0.2,0.5-0.2,0.7,0c0.5,0.5,1,0.9,1.5,1.4c0.2,0.2,0.2,0.5,0,0.7C305,39.1,304.8,39.1,304.7,39.1z
				 M243.3,36.7c-0.1,0-0.1,0-0.2,0c-0.3-0.1-0.4-0.4-0.2-0.7c0.3-0.6,0.6-1.2,0.9-1.8c0.1-0.2,0.4-0.3,0.7-0.2
				c0.2,0.1,0.3,0.4,0.2,0.7c-0.3,0.6-0.6,1.2-0.9,1.8C243.7,36.6,243.5,36.7,243.3,36.7z M300.9,35.8c-0.1,0-0.2,0-0.3-0.1
				c-0.5-0.4-1-0.9-1.6-1.3c-0.2-0.2-0.3-0.5-0.1-0.7c0.2-0.2,0.5-0.3,0.7-0.1c0.5,0.4,1.1,0.9,1.6,1.3c0.2,0.2,0.2,0.5,0.1,0.7
				C301.2,35.7,301.1,35.8,300.9,35.8z M296.9,32.6c-0.1,0-0.2,0-0.3-0.1c-0.5-0.4-1.1-0.8-1.6-1.2c-0.2-0.2-0.3-0.5-0.1-0.7
				c0.2-0.2,0.5-0.3,0.7-0.1c0.6,0.4,1.1,0.8,1.7,1.2c0.2,0.2,0.3,0.5,0.1,0.7C297.2,32.6,297.1,32.6,296.9,32.6z M245.8,32.3
				c-0.1,0-0.2,0-0.3-0.1c-0.2-0.2-0.3-0.5-0.1-0.7c0.4-0.6,0.8-1.1,1.2-1.7c0.2-0.2,0.5-0.3,0.7-0.1c0.2,0.2,0.3,0.5,0.1,0.7
				c-0.4,0.5-0.8,1.1-1.2,1.6C246.1,32.2,245.9,32.3,245.8,32.3z M292.8,29.8c-0.1,0-0.2,0-0.3-0.1c-0.6-0.4-1.1-0.7-1.7-1.1
				c-0.2-0.1-0.3-0.5-0.2-0.7c0.1-0.2,0.5-0.3,0.7-0.2c0.6,0.3,1.2,0.7,1.7,1.1c0.2,0.1,0.3,0.5,0.2,0.7
				C293.1,29.7,292.9,29.8,292.8,29.8z M249,28.4c-0.1,0-0.3,0-0.4-0.1c-0.2-0.2-0.2-0.5,0-0.7c0.5-0.5,1-1,1.5-1.4
				c0.2-0.2,0.5-0.2,0.7,0.1c0.2,0.2,0.2,0.5-0.1,0.7c-0.5,0.4-1,0.9-1.4,1.4C249.2,28.3,249.1,28.4,249,28.4z M288.4,27.2
				c-0.1,0-0.2,0-0.2-0.1c-0.6-0.3-1.2-0.6-1.8-0.9c-0.2-0.1-0.3-0.4-0.2-0.7c0.1-0.2,0.4-0.3,0.7-0.2c0.6,0.3,1.2,0.6,1.8,0.9
				c0.2,0.1,0.3,0.4,0.2,0.7C288.8,27.1,288.6,27.2,288.4,27.2z M252.9,25.2c-0.2,0-0.3-0.1-0.4-0.2c-0.2-0.2-0.1-0.5,0.1-0.7
				c0.6-0.4,1.2-0.7,1.8-1.1c0.2-0.1,0.5,0,0.7,0.2c0.1,0.2,0,0.5-0.2,0.7c-0.6,0.3-1.1,0.7-1.7,1C253.1,25.1,253,25.2,252.9,25.2z
				 M283.9,24.9c-0.1,0-0.1,0-0.2,0c-0.6-0.3-1.2-0.5-1.8-0.8c-0.3-0.1-0.4-0.4-0.3-0.6c0.1-0.3,0.4-0.4,0.7-0.3
				c0.6,0.2,1.3,0.5,1.9,0.8c0.3,0.1,0.4,0.4,0.3,0.7C284.3,24.8,284.1,24.9,283.9,24.9z M279.2,23.1c-0.1,0-0.1,0-0.2,0
				c-0.6-0.2-1.3-0.4-1.9-0.6c-0.3-0.1-0.4-0.4-0.3-0.6c0.1-0.3,0.3-0.4,0.6-0.3c0.6,0.2,1.3,0.4,2,0.6c0.3,0.1,0.4,0.4,0.3,0.6
				C279.6,23,279.4,23.1,279.2,23.1z M257.3,22.8c-0.2,0-0.4-0.1-0.5-0.3c-0.1-0.3,0-0.5,0.3-0.6c0.6-0.2,1.3-0.5,2-0.7
				c0.3-0.1,0.5,0.1,0.6,0.3c0.1,0.3-0.1,0.5-0.3,0.6c-0.6,0.2-1.3,0.4-1.9,0.6C257.5,22.8,257.4,22.8,257.3,22.8z M274.3,21.8
				c0,0-0.1,0-0.1,0c-0.7-0.1-1.3-0.3-2-0.3c-0.3,0-0.5-0.3-0.4-0.6c0-0.3,0.3-0.5,0.6-0.4c0.7,0.1,1.3,0.2,2,0.4
				c0.3,0.1,0.4,0.3,0.4,0.6C274.7,21.6,274.5,21.8,274.3,21.8z M262.2,21.5c-0.2,0-0.4-0.2-0.5-0.4c0-0.3,0.1-0.5,0.4-0.6
				c0.7-0.1,1.4-0.2,2-0.3c0.3,0,0.5,0.2,0.5,0.4c0,0.3-0.2,0.5-0.4,0.5C263.6,21.3,262.9,21.4,262.2,21.5
				C262.3,21.5,262.2,21.5,262.2,21.5z M269.3,21.1C269.3,21.1,269.2,21.1,269.3,21.1c-0.7,0-1.4-0.1-2-0.1c-0.3,0-0.5-0.2-0.5-0.5
				c0-0.3,0.2-0.5,0.5-0.5c0.7,0,1.4,0,2.1,0.1c0.3,0,0.5,0.3,0.5,0.5C269.7,20.9,269.5,21.1,269.3,21.1z"/>
		</g>
		<g>
			<path class="st1" d="M334.4,84.5c-0.2,0-0.4-0.1-0.5-0.3l-0.3-0.9c-0.1-0.3,0-0.5,0.3-0.6c0.3-0.1,0.5,0,0.6,0.3l0.3,0.9
				c0.1,0.3,0,0.5-0.3,0.6C334.5,84.5,334.5,84.5,334.4,84.5z"/>
		</g>
	</g>
	<g>
		<g>
			<path class="st4" d="M316.3,159.1c-0.2,0-0.4-0.1-0.5-0.3c-0.1-0.3-0.3-0.6-0.4-0.9c-0.1-0.3,0-0.5,0.3-0.7
				c0.3-0.1,0.5,0,0.7,0.3c0.1,0.3,0.3,0.6,0.4,0.9c0.1,0.3,0,0.5-0.3,0.7C316.4,159.1,316.3,159.1,316.3,159.1z"/>
		</g>
		<g>
			<path class="st4" d="M302.5,205.6C302.5,205.6,302.5,205.6,302.5,205.6c-0.7,0-1.3,0-2-0.1c-0.3,0-0.5-0.3-0.5-0.5
				c0-0.3,0.3-0.5,0.5-0.5c0.6,0.1,1.3,0.1,1.9,0.1c0.3,0,0.5,0.2,0.5,0.5C303,205.4,302.8,205.6,302.5,205.6z M305.4,205.4
				c-0.2,0-0.5-0.2-0.5-0.4c0-0.3,0.1-0.5,0.4-0.6c0.6-0.1,1.3-0.2,1.9-0.4c0.3-0.1,0.5,0.1,0.6,0.4c0.1,0.3-0.1,0.5-0.4,0.6
				C306.9,205.2,306.2,205.3,305.4,205.4C305.5,205.4,305.5,205.4,305.4,205.4z M297.6,205.1c0,0-0.1,0-0.1,0
				c-0.6-0.1-1.3-0.3-2-0.5c-0.3-0.1-0.4-0.4-0.3-0.6c0.1-0.3,0.4-0.4,0.6-0.3c0.6,0.2,1.3,0.3,1.9,0.5c0.3,0.1,0.4,0.3,0.4,0.6
				C298,204.9,297.8,205.1,297.6,205.1z M310.2,204c-0.2,0-0.4-0.1-0.5-0.3c-0.1-0.3,0-0.5,0.2-0.7c0.6-0.3,1.1-0.6,1.7-0.9
				c0.2-0.1,0.5-0.1,0.7,0.2c0.1,0.2,0.1,0.5-0.2,0.7c-0.6,0.4-1.2,0.7-1.8,1C310.3,204,310.2,204,310.2,204z M292.8,203.6
				c-0.1,0-0.1,0-0.2,0c-0.6-0.2-1.2-0.5-1.8-0.8c-0.3-0.1-0.4-0.4-0.2-0.7c0.1-0.3,0.4-0.4,0.7-0.2c0.6,0.3,1.2,0.5,1.8,0.8
				c0.3,0.1,0.4,0.4,0.3,0.6C293.2,203.5,293,203.6,292.8,203.6z M314.2,201.3c-0.1,0-0.3-0.1-0.4-0.2c-0.2-0.2-0.2-0.5,0-0.7
				c0.5-0.4,0.9-0.9,1.3-1.4c0.2-0.2,0.5-0.2,0.7-0.1c0.2,0.2,0.2,0.5,0.1,0.7c-0.4,0.5-0.9,1-1.4,1.5
				C314.5,201.2,314.4,201.3,314.2,201.3z M317.4,197.4c-0.1,0-0.2,0-0.3-0.1c-0.2-0.1-0.3-0.5-0.2-0.7c0.3-0.5,0.6-1.1,0.9-1.7
				c0.1-0.2,0.4-0.3,0.7-0.2c0.2,0.1,0.4,0.4,0.2,0.7c-0.3,0.6-0.6,1.2-1,1.8C317.7,197.3,317.5,197.4,317.4,197.4z M319.4,192.9
				c-0.1,0-0.1,0-0.2,0c-0.3-0.1-0.4-0.4-0.3-0.6c0.2-0.6,0.4-1.2,0.6-1.9c0.1-0.3,0.3-0.4,0.6-0.4c0.3,0.1,0.4,0.3,0.4,0.6
				c-0.2,0.7-0.4,1.3-0.6,1.9C319.8,192.8,319.6,192.9,319.4,192.9z M320.6,188.1C320.6,188.1,320.6,188.1,320.6,188.1
				c-0.4-0.1-0.5-0.3-0.5-0.6c0.1-0.6,0.2-1.3,0.3-1.9c0-0.3,0.3-0.5,0.5-0.4c0.3,0,0.5,0.3,0.4,0.5c-0.1,0.7-0.2,1.3-0.3,2
				C321.1,188,320.9,188.1,320.6,188.1z M321.1,183.2C321.1,183.2,321.1,183.2,321.1,183.2c-0.3,0-0.5-0.2-0.5-0.5
				c0-0.4,0-0.9,0-1.4l0-0.6c0-0.3,0.2-0.5,0.5-0.5c0.3,0,0.5,0.2,0.5,0.5l0,0.6c0,0.5,0,0.9,0,1.4
				C321.6,183,321.4,183.2,321.1,183.2z M321,178.3c-0.3,0-0.5-0.2-0.5-0.5c0-0.6-0.1-1.3-0.2-2c0-0.3,0.2-0.5,0.4-0.6
				c0.3,0,0.5,0.2,0.6,0.4c0.1,0.7,0.1,1.3,0.2,2C321.5,178,321.3,178.2,321,178.3C321,178.3,321,178.3,321,178.3z M320.4,173.4
				c-0.2,0-0.5-0.2-0.5-0.4c-0.1-0.6-0.2-1.3-0.4-1.9c-0.1-0.3,0.1-0.5,0.4-0.6c0.3-0.1,0.5,0.1,0.6,0.4c0.1,0.7,0.3,1.3,0.4,2
				C320.9,173,320.7,173.3,320.4,173.4C320.4,173.4,320.4,173.4,320.4,173.4z M319.4,168.5c-0.2,0-0.4-0.2-0.5-0.4
				c-0.2-0.6-0.3-1.3-0.5-1.9c-0.1-0.3,0.1-0.5,0.3-0.6c0.3-0.1,0.5,0.1,0.6,0.3c0.2,0.6,0.4,1.3,0.5,1.9c0.1,0.3-0.1,0.5-0.4,0.6
				C319.4,168.5,319.4,168.5,319.4,168.5z M318,163.7c-0.2,0-0.4-0.1-0.5-0.3c-0.2-0.6-0.4-1.2-0.6-1.9c-0.1-0.3,0-0.5,0.3-0.6
				c0.3-0.1,0.5,0,0.6,0.3c0.2,0.6,0.4,1.3,0.6,1.9c0.1,0.3-0.1,0.5-0.3,0.6C318.1,163.7,318,163.7,318,163.7z"/>
		</g>
		<g>
			<path class="st4" d="M288.3,201.5c-0.1,0-0.2,0-0.2-0.1c-0.3-0.2-0.6-0.3-0.9-0.5c-0.2-0.1-0.3-0.4-0.2-0.7
				c0.1-0.2,0.4-0.3,0.7-0.2c0.3,0.2,0.6,0.3,0.9,0.5c0.2,0.1,0.3,0.4,0.2,0.7C288.7,201.4,288.5,201.5,288.3,201.5z"/>
		</g>
	</g>
	<g>
		<path class="st4" d="M315.1,159.6C315.1,159.6,315.1,159.6,315.1,159.6c-0.3,0-0.5-0.3-0.5-0.5l0.2-2.7c0-0.2,0.1-0.3,0.3-0.4
			c0.2-0.1,0.4-0.1,0.5,0.1l2.3,1.7c0.2,0.2,0.3,0.5,0.1,0.7c-0.2,0.2-0.5,0.3-0.7,0.1l-1.5-1.1l-0.1,1.7
			C315.6,159.4,315.4,159.6,315.1,159.6z"/>
	</g>
</g>
<path class="st3" d="M133.6,71c0-3.3-4.6-6-10.3-6c-5.7,0-10.3,2.6-10.3,5.9c0,3,3.9,5.5,8.9,5.9l0,1.7c-1,0.1-1.7,0.6-1.6,1.2
	l0,5.7c0,0.7,1,1.3,2.2,1.3l1.7,0c1.2,0,2.2-0.6,2.2-1.3l0-5.7c0-0.6-0.7-1.1-1.7-1.2l0-1.7C129.8,76.4,133.6,74,133.6,71z"/>
<g>
	<path class="st2" d="M258.3,303.4L79.5,200.1c-6.9-4-12.5-14.7-12.5-23.9V13.5c0-9.2,5.6-13.5,12.5-9.5l178.8,103.3
		c6.9,4,12.5,14.7,12.5,23.9v162.6C270.8,303.1,265.2,307.4,258.3,303.4z"/>
	<path class="st7" d="M263.2,104.8L84.4,1.5c-2.7-1.6-5.3-1.9-7.3-1.1c-0.3,0.1-5.2,2.6-5.4,2.8c0,0,0,0,0,0c2.1-1,4.8-0.8,7.8,0.9
		l178.8,103.3c6.9,4,12.5,14.7,12.5,23.9v162.6c0,5.8-2.2,9.6-5.5,10.7c0.3,0,0.6-0.1,1.1-0.4c0.2-0.1,5.4-2.9,5.5-3
		c2.4-1.7,3.9-5.1,3.9-9.8V128.7C275.7,119.5,270.1,108.8,263.2,104.8z"/>
	<path class="st8" d="M261.8,105.4L83,2.2c-2.7-1.6-5.3-1.9-7.3-1.1c-0.3,0.1-3.8,2-4,2.1c0,0,0,0,0,0c2.1-1,4.8-0.8,7.8,0.9
		l178.8,103.3L261.8,105.4z"/>
	<path class="st3" d="M258.9,107L80.1,3.8c-2.8-1.6-5.4-1.9-7.5-1c1.8-0.3,3.9,0.1,6,1.4l178.8,103.3c6.9,4,12.5,14.7,12.5,23.9
		v162.6c0,5.4-2,9.1-5,10.4c3.9-0.6,6.5-4.6,6.5-10.9V131C271.4,121.8,265.8,111,258.9,107z"/>
	<path class="st9" d="M74,28v148.2c0,7.2,3.4,14.3,9,17.9l176.9,102.2c0.1,0,0.2,0.1,0.3,0.2c1.6,0.9,3.6-0.2,3.6-2.1V137.6L74,28z"
		/>
	<path class="st10" d="M263.5,295c-0.1-0.1-0.2-0.1-0.3-0.2L86.3,192.7c-5.6-3.5-9-10.6-9-17.9V29.9L74,28v148.2
		c0,7.2,3.4,14.3,9,17.9l176.9,102.2c0.1,0,0.2,0.1,0.3,0.2c1.4,0.8,3,0.1,3.4-1.3C263.6,295,263.5,295,263.5,295z"/>
	<g>
		<path class="st11" d="M253.8,119.8c0,2.2,1.5,4.8,3.4,5.9c1.9,1.1,3.4,0.2,3.4-2c0-2.2-1.5-4.8-3.4-5.9
			C255.3,116.8,253.8,117.6,253.8,119.8z"/>
		<path class="st4" d="M244.9,114.7c0,2.2,1.5,4.8,3.4,5.9c1.9,1.1,3.4,0.2,3.4-2c0-2.2-1.5-4.8-3.4-5.9
			C246.4,111.6,244.9,112.5,244.9,114.7z"/>
		<path class="st12" d="M236,109.5c0,2.2,1.5,4.8,3.4,5.9c1.9,1.1,3.4,0.2,3.4-2s-1.5-4.8-3.4-5.9C237.5,106.4,236,107.3,236,109.5z
			"/>
	</g>
</g>
<path class="st0" d="M190.6,104.5l-13-7.5c-1.3-0.8-2.4-0.2-2.4,1.4c0,1.5,1.1,3.3,2.4,4.1l13,7.5c1.3,0.8,2.4,0.2,2.4-1.4
	C193,107.1,192,105.3,190.6,104.5z M212,116.9l-13-7.5c-1.3-0.8-2.4-0.2-2.4,1.4c0,1.5,1.1,3.3,2.4,4.1l13,7.5
	c1.3,0.8,2.4,0.2,2.4-1.4C214.4,119.5,213.3,117.6,212,116.9z M233.4,129.2l-13-7.5c-1.3-0.8-2.4-0.2-2.4,1.4c0,1.5,1.1,3.3,2.4,4.1
	l13,7.5c1.3,0.8,2.4,0.2,2.4-1.4C235.7,131.8,234.7,130,233.4,129.2z M254.7,141.5l-13-7.5c-1.3-0.8-2.4-0.2-2.4,1.4
	c0,1.5,1.1,3.3,2.4,4.1l13,7.5c1.3,0.8,2.4,0.2,2.4-1.4C257.1,144.1,256,142.3,254.7,141.5z"/>
<g>
	<g>
		<polygon class="st13" points="139.2,115.3 139.2,171.1 145.3,167.5 145.3,111.5 		"/>
		<polygon class="st7" points="139.2,115.3 139.2,171.1 17.4,101.2 17.4,45.2 		"/>
		<polygon class="st0" points="17.4,45.2 139.2,115.3 145.3,111.5 23.4,41.6 		"/>
		<polygon class="st6" points="17.4,45.2 139.2,115.3 145.3,111.5 139.2,114.4 		"/>
	</g>
	<g>
		<polygon class="st3" points="121.4,150.8 121.4,148.5 82.9,126.6 82.9,129 		"/>
		<polygon class="st3" points="66.3,82.5 66.3,84.9 130.9,121.9 130.9,119.5 		"/>
		<polygon class="st3" points="89,115.4 66.3,102.2 66.3,104.6 89,117.7 		"/>
		<polygon class="st3" points="104.4,134.1 104.4,136.5 113.8,141.6 113.8,139.2 		"/>
		<polygon class="st3" points="103,113.6 66.3,92.4 66.3,94.7 103,115.9 		"/>
		<polygon class="st3" points="79.7,105.1 66.3,97.3 66.3,99.7 79.7,107.4 		"/>
		<polygon class="st3" points="76.3,120.2 102.1,135.1 102.1,132.7 76.3,117.9 		"/>
		<polygon class="st3" points="82,106.4 82,108.8 118.3,129.3 118.3,127 		"/>
		<polygon class="st3" points="91.4,116.7 91.4,119.1 109.5,129.5 109.5,127.2 		"/>
		<polygon class="st3" points="74,116.5 66.3,112.1 66.3,114.4 74,118.9 		"/>
		<polygon class="st3" points="105.3,117.3 130.9,131.7 130.9,129.3 105.3,114.9 		"/>
		<polygon class="st3" points="120.6,130.7 130.9,136.6 130.9,134.3 120.6,128.3 		"/>
		<polygon class="st3" points="66.3,89.8 130.9,126.8 130.9,124.4 66.3,87.4 		"/>
		<polygon class="st3" points="111.8,130.9 130.9,141.6 130.9,139.2 111.8,128.5 		"/>
		<polygon class="st3" points="80.6,125.3 66.3,117 66.3,119.4 80.6,127.6 		"/>
		<polygon class="st3" points="123.7,152.2 130.9,156.3 130.9,154 123.7,149.8 		"/>
		<polygon class="st3" points="116.1,142.9 130.9,151.4 130.9,149 116.1,140.5 		"/>
		<polygon class="st3" points="66.3,109.5 130.9,146.5 130.9,144.1 66.3,107.1 		"/>
	</g>
	<path class="st13" d="M52.8,73.1L31.5,60.9c-3.7-2.1-6.7,0.1-6.7,5.1v24.6c0,5,3,10.7,6.7,12.8l21.2,12.3c3.7,2.1,6.7-0.1,6.7-5.1
		V86C59.5,81,56.5,75.3,52.8,73.1z"/>
	<path class="st14" d="M55.4,113.7l-21.2-12.3c-3.7-2.1-6.7-7.9-6.7-12.8V63.9c0-1.6,0.3-2.9,0.8-3.8c-2.1,0.3-3.5,2.5-3.5,5.8v24.6
		c0,5,3,10.7,6.7,12.8l21.2,12.3c2.5,1.5,4.7,0.9,5.9-1.2C57.7,114.6,56.6,114.4,55.4,113.7z"/>
	<g>
		<path class="st12" d="M36.3,80L15,67.7c-3.7-2.1-6.7,0.1-6.7,5.1v24.6c0,5,3,10.7,6.7,12.8l21.2,12.3c3.7,2.1,6.7-0.1,6.7-5.1
			V92.9C43,87.9,40,82.2,36.3,80z"/>
		<path class="st15" d="M39.7,78L18.5,65.7c-1.6-0.9-3-1-4.2-0.5l0,0l-3.7,2.2l0,0c1.2-0.7,2.7-0.7,4.4,0.3L36.3,80
			C40,82.2,43,87.9,43,92.9v24.6c0,2.4-0.7,4.2-1.9,5.1l2-1.3c1.7-1,3.3-2.5,3.3-5.8V90.8C46.5,85.9,43.4,80.1,39.7,78z"/>
		<path class="st6" d="M36.6,79.7L15.4,67.4c-1.8-1.1-3.5-1-4.7-0.1c1.1-0.4,2.5-0.3,3.9,0.6l21.2,12.3c3.7,2.1,6.7,7.9,6.7,12.8
			v24.6c0,2.5-0.8,4.3-2,5.2c1.7-0.6,2.8-2.7,2.8-5.7V92.6C43.4,87.6,40.4,81.9,36.6,79.7z"/>
		<path class="st3" d="M13.9,74.5v28.1L37,116V87.8L13.9,74.5z M35.5,113.4l-20.1-11.6V77.1l20.1,11.6V113.4z"/>
		<path class="st3" d="M31.9,92.8c0,1.8-1.3,2.6-2.9,1.7c-1.6-0.9-2.9-3.2-2.9-5s1.3-2.6,2.9-1.7C30.6,88.7,31.9,91,31.9,92.8z"/>
		<polygon class="st3" points="14.7,95.2 20.7,87.4 26.8,102.8 31.2,99.2 36.1,112.5 36,113.9 14.8,102.5 		"/>
	</g>
</g>
<g>
	<g>
		<path class="st11" d="M295.8,96.2c0,3.8-1.3,6.5-3.5,7.8c-0.1,0-3.7,2.3-3.7,2.3c-2.2,1.2-0.8-1.6-4.2-3.5
			c-6.8-3.9-12.4-13.5-12.4-21.3c0-3.9-3.6-3.9-1.4-5.2c0.1,0,4.1-2.3,4.2-2.4c2.2-1.2,5.3-1,8.6,1
			C290.2,78.9,295.8,88.4,295.8,96.2z"/>
		<path class="st3" d="M280,77c-3.3-1.9-6.2-2.1-8.5-1c2.1-0.6,4.6-0.1,7.4,1.5c6.8,3.9,12.4,13.5,12.4,21.3c0,4.1-1.5,6.9-3.9,8.1
			c3-0.8,5-3.8,5-8.5C292.3,90.5,286.8,81,280,77z"/>
		
			<ellipse transform="matrix(0.8633 -0.5047 0.5047 0.8633 -8.0019 153.5022)" class="st16" cx="279.4" cy="91.5" rx="10.1" ry="17.4"/>
	</g>
	<path class="st17" d="M277.2,86.4c0,1.1-0.8,1.5-1.7,1c-1-0.6-1.7-1.9-1.7-3c0-1.1,0.8-1.5,1.7-1C276.4,84,277.2,85.3,277.2,86.4z"
		/>
	<path class="st17" d="M284.2,90.5c0,1.1-0.8,1.5-1.7,1c-1-0.6-1.7-1.9-1.7-3c0-1.1,0.8-1.5,1.7-1C283.4,88.1,284.2,89.4,284.2,90.5
		z"/>
	<path class="st17" d="M272.4,91l1.6,0.3c0.7,2.8,2.7,5.6,5,6.9c2.2,1.2,4.1,0.8,4.9-1l1.6,1.6c-1,2.5-3.7,3-6.5,1.4
		C276,98.4,273.4,94.7,272.4,91z"/>
	<path class="st18" d="M275.9,87.1c-1-0.6-1.7-1.9-1.7-3c0-0.4,0.1-0.6,0.2-0.8c-0.4,0.1-0.7,0.5-0.7,1.2c0,1.1,0.8,2.4,1.7,3
		c0.6,0.4,1.2,0.3,1.5-0.1C276.6,87.4,276.3,87.3,275.9,87.1z"/>
	<path class="st18" d="M282.9,91.1c-1-0.6-1.7-1.9-1.7-3c0-0.4,0.1-0.6,0.2-0.8c-0.4,0.1-0.7,0.5-0.7,1.2c0,1.1,0.8,2.4,1.7,3
		c0.6,0.4,1.2,0.3,1.5-0.1C283.7,91.4,283.3,91.3,282.9,91.1z"/>
	<g>
		<path class="st18" d="M284.1,97.3l-0.2-0.2c-0.2,0.4-0.4,0.8-0.7,1.1C283.5,98,283.8,97.7,284.1,97.3z"/>
		<path class="st18" d="M279.5,99.8c-2.8-1.6-5.4-5.1-6.5-8.7l-0.6-0.1c1,3.8,3.6,7.4,6.6,9.1c2.2,1.2,4.2,1.2,5.5,0.1
			C283.1,101,281.4,100.9,279.5,99.8z"/>
	</g>
</g>
<g>
	<g>
		<polygon class="st13" points="289.7,219 289.7,287.2 295.8,283.7 295.8,215.3 		"/>
		<polygon class="st7" points="289.7,219 289.7,287.2 156.4,210.8 156.4,142.5 		"/>
		<polygon class="st0" points="156.4,142.5 289.7,219 295.8,215.3 162.5,138.8 		"/>
		<polygon class="st6" points="156.4,142.5 289.7,219 295.8,215.3 289.7,218.2 		"/>
	</g>
	
		<ellipse transform="matrix(0.8633 -0.5047 0.5047 0.8633 -83.8855 163.9462)" class="st13" cx="260.7" cy="236.8" rx="17" ry="29.5"/>
	<path class="st14" d="M262.7,259.1c-11.6-6.7-20.9-22.8-20.9-36.1c0-4.9,1.3-8.8,3.5-11.3c-3.4,2.3-5.5,6.8-5.5,13.1
		c0,13.3,9.4,29.4,20.9,36.1c7.2,4.2,13.6,3.6,17.4-0.6C274.3,262.8,268.8,262.6,262.7,259.1z"/>
	<g>
		<path class="st13" d="M202,179.9l-4.5-2.6V228l4.5,2.6V179.9z M208.5,177.3l-4.5-2.6v56.9l4.5,2.6V177.3z M215.1,188.8l-4.5-2.6
			v49.3l4.5,2.6V188.8z M184.2,192.4v27.8l4.5,2.6V195L184.2,192.4z M195.3,184.6l-4.5-2.6v41.9l4.5,2.6V184.6z M221.7,202.9
			l-4.5-2.6v39l4.5,2.6V202.9z M228.1,219l-4.5-2.6V243l4.5,2.6V219z M182,187.6l-4.5-2.6v31.2l4.5,2.6V187.6z M164.2,189.4v18.9
			l4.5,2.6V192L164.2,189.4z M175.3,182l-4.5-2.6v32.7l4.5,2.6V182z"/>
		<path class="st1" d="M202,199.8l-4.5-2.6V228l4.5,2.6V199.8z M208.5,185.8l-4.5-2.6v48.5l4.5,2.6V185.8z M215.1,197.8l-4.5-2.6
			v40.3l4.5,2.6V197.8z M184.2,199.1v21l4.5,2.6v-21L184.2,199.1z M195.3,198.3l-4.5-2.6v28.3l4.5,2.6V198.3z M182,190.1l-4.5-2.6
			v28.6l4.5,2.6V190.1z M164.2,202.8v5.5l4.5,2.6v-5.5L164.2,202.8z M175.3,202.8l-4.5-2.6v11.9l4.5,2.6V202.8z M221.7,210.1
			l-4.5-2.6v31.7l4.5,2.6V210.1z M228.1,222.9l-4.5-2.6V243l4.5,2.6V222.9z"/>
		<g>
			<polygon class="st3" points="215.1,198.4 210.6,195.8 210.6,195.2 215.1,197.8 			"/>
			<polygon class="st3" points="208.5,186.3 204,183.8 204,183.2 208.5,185.8 			"/>
			<polygon class="st3" points="228.1,223.5 223.6,220.9 223.6,220.3 228.1,222.9 			"/>
			<polygon class="st3" points="202,200.3 197.5,197.8 197.5,197.2 202,199.8 			"/>
			<polygon class="st3" points="221.7,210.7 217.2,208.1 217.2,207.5 221.7,210.1 			"/>
			<polygon class="st3" points="175.3,203.4 170.8,200.8 170.8,200.2 175.3,202.8 			"/>
			<polygon class="st3" points="182,190.7 177.5,188.1 177.5,187.5 182,190.1 			"/>
			<polygon class="st3" points="168.7,205.4 168.7,206 164.2,203.4 164.2,202.8 			"/>
			<polygon class="st3" points="195.3,198.9 190.8,196.3 190.8,195.7 195.3,198.3 			"/>
			<polygon class="st3" points="188.7,202.3 184.2,199.7 184.2,199.1 188.7,201.7 			"/>
		</g>
	</g>
	<g>
		<g>
			<path class="st11" d="M240.1,228c0.3-10,7.6-14,16.5-8.8c4.6,2.7,8.8,7.2,11.8,12.5l3.3-0.8c-3.8-6.8-9.1-12.8-15.1-16.2
				c-11.2-6.5-20.4-1.4-20.5,11.4l2.6,2.4L240.1,228z"/>
			<path class="st11" d="M264.9,259.2c-2.4,0.2-5.3-0.5-8.3-2.2c-8.5-4.9-15.5-16.3-16.4-26.2l-4-2c0,0.1-1.3,0.3-1.3,0.4
				c1.2,12.4,11.2,26.4,21.8,32.5c3.8,2.2,6.4,3.4,9.5,3c0.1,0,1.3-0.3,1.4-0.4L264.9,259.2z"/>
			<path class="st11" d="M269.9,234.6c2,4.3,3.2,8.8,3.2,13c0,6-2.4,9.9-6.2,11.2l2.6,5.1c4.7-1.6,7.7-6.5,7.7-13.9
				c0-5.2-1.5-10.8-4-16.2L269.9,234.6z"/>
		</g>
		<path class="st11" d="M262.3,242.9c-1.1-0.9-2.1-2.1-2.9-3.5c-0.5-0.8-0.5-1.7,0-1.9c0.6-0.4,1.1-0.9,1.5-1.6
			c0.5,0.1,1.1,0,1.1-0.7c0-0.7-0.3-1.5-0.7-1.9c-0.1-3-1.2-6.2-4.7-8.2c-1.2-0.7-2.1-0.9-2.8-0.8c-0.2,0-1.5,0.4-1.7,0.5
			c-0.9,0.5-0.1,1.5-0.1,3.1c-0.4-0.1-0.7,0.3-0.7,1c0,0.7,0.6,1.6,1.1,2.1c0.3,1.1,0.9,2.3,1.5,3.4c0.5,0.8,0.5,1.7,0,1.9
			c-0.8,0.4-1.8,0.5-2.9,0.1c-0.4-0.1-0.9-0.1-1.2,0c-0.1,0-1.3,0.4-1.4,0.4c-0.7,0.3,0.1,0.8,0.1,1.9v3.1c0,0.6,0.4,1.3,1,1.7
			l13.4,8.9c0.2,0.1,1.6-0.3,1.7-0.4c0.2-0.1,0.3-0.3,0.3-0.6v-3.1C264.8,246.3,263.8,244.2,262.3,242.9z"/>
		<g>
			<path class="st3" d="M239.2,228.2c0.3-10,7.6-14,16.5-8.8c4.6,2.7,8.8,7.2,11.8,12.5l3.3-0.8c-3.8-6.8-9.1-12.8-15.1-16.2
				c-11.2-6.5-20.4-1.4-20.5,11.4L239.2,228.2z"/>
			<path class="st3" d="M264,259.5c-2.4,0.2-5.3-0.5-8.3-2.2c-8.5-4.9-15.5-16.3-16.4-26.2l-4-2c1.1,12.5,9.8,26.8,20.4,32.9
				c4,2.3,7.7,3.1,10.9,2.7L264,259.5z"/>
			<path class="st3" d="M269,234.9c2,4.3,3.2,8.8,3.2,13c0,6-2.4,9.9-6.2,11.2l2.6,5.1c4.7-1.6,7.7-6.5,7.7-13.9
				c0-5.2-1.5-10.8-4-16.2L269,234.9z"/>
		</g>
		<path class="st3" d="M261.4,243.2c-1.1-0.9-2.1-2.1-2.9-3.5c-0.5-0.8-0.5-1.7,0-1.9c0.6-0.4,1.1-0.9,1.5-1.6
			c0.5,0.1,1.1,0,1.1-0.7c0-0.7-0.3-1.5-0.7-1.9c-0.1-3-1.2-6.2-4.7-8.2c-3.5-2-4.5-0.1-4.7,2.8c-0.4-0.1-0.7,0.3-0.7,1
			c0,0.7,0.6,1.6,1.1,2.1c0.3,1.1,0.9,2.3,1.5,3.4c0.5,0.8,0.5,1.7,0,1.9c-0.8,0.4-1.8,0.5-2.9,0.1c-1.5-0.4-2.6,0.4-2.6,2.2v3.1
			c0,0.6,0.4,1.3,1,1.7l14.5,8.4c0.5,0.3,1,0.1,1-0.5v-3.1C263.9,246.6,262.9,244.4,261.4,243.2z"/>
		<g>
			<path class="st19" d="M238.7,228.3c0.3-10,7.6-14,16.5-8.8c4.6,2.7,8.8,7.2,11.8,12.5l3.3-0.8c-3.8-6.8-9.1-12.8-15.1-16.2
				c-11.2-6.5-20.4-1.4-20.5,11.4L238.7,228.3z"/>
			<path class="st19" d="M263.5,259.6c-2.4,0.2-5.3-0.5-8.3-2.2c-8.5-4.9-15.5-16.3-16.4-26.2l-4-2c1.1,12.5,9.8,26.8,20.4,32.9
				c4,2.3,7.7,3.1,10.9,2.7L263.5,259.6z"/>
			<path class="st19" d="M268.5,235c2,4.3,3.2,8.8,3.2,13c0,6-2.4,9.9-6.2,11.2l2.6,5.1c4.7-1.6,7.7-6.5,7.7-13.9
				c0-5.2-1.5-10.8-4-16.2L268.5,235z"/>
		</g>
		<path class="st19" d="M260.9,243.3c-1.1-0.9-2.1-2.1-2.9-3.5c-0.5-0.8-0.5-1.7,0-1.9c0.6-0.4,1.1-0.9,1.5-1.6
			c0.5,0.1,1.1,0,1.1-0.7c0-0.7-0.3-1.5-0.7-1.9c-0.1-3-1.2-6.2-4.7-8.2c-3.5-2-4.5-0.1-4.7,2.8c-0.4-0.1-0.7,0.3-0.7,1
			c0,0.7,0.6,1.6,1.1,2.1c0.3,1.1,0.9,2.3,1.5,3.4c0.5,0.8,0.5,1.7,0,1.9c-0.8,0.4-1.8,0.5-2.9,0.1c-1.5-0.4-2.6,0.4-2.6,2.2v3.1
			c0,0.6,0.4,1.3,1,1.7l14.5,8.4c0.5,0.3,1,0.1,1-0.5v-3.1C263.4,246.7,262.3,244.5,260.9,243.3z"/>
	</g>
</g>
<g>
	<g>
		<polygon class="st15" points="157.2,201.9 157.2,230.5 161.9,227.8 161.9,199.1 		"/>
		<polygon class="st12" points="157.2,201.9 157.2,230.5 51.5,169.5 51.5,140.8 		"/>
		<polygon class="st20" points="51.5,140.8 157.2,201.9 161.9,199.1 56.3,138 		"/>
		<polygon class="st6" points="51.5,140.8 157.2,201.9 161.9,199.1 157.3,201.2 		"/>
	</g>
	<polygon class="st3" points="151.8,221.8 56.7,166.3 56.7,149.5 151.8,205 	"/>
	<g>
		<path class="st14" d="M60.7,154.3l1.9,1.1l0.9,9.2l0,0l0.9-8.1l2.2,1.3l0.9,9.2l0,0l0.9-8.2l1.7,1L69,171.1l-2.5-1.4l-0.9-7.8l0,0
			l-0.9,6.8l-2.6-1.5L60.7,154.3z"/>
		<path class="st14" d="M72.1,160.9L74,162l0.9,9.2l0,0l0.9-8.1l2.2,1.3l0.9,9.2l0,0l0.9-8.2l1.7,1l-1.3,11.3l-2.5-1.4l-0.9-7.8l0,0
			l-0.9,6.8l-2.6-1.5L72.1,160.9z"/>
		<path class="st14" d="M83.6,167.4l1.9,1.1l0.9,9.2l0,0l0.9-8.1l2.2,1.3l0.9,9.2l0,0l0.9-8.2l1.7,1l-1.3,11.3l-2.5-1.4l-0.9-7.8
			l0,0l-0.9,6.8l-2.6-1.5L83.6,167.4z"/>
	</g>
</g>
<g>
	<g>
		<polygon class="st11" points="99.5,55 99.5,74.9 102.5,73.3 102.5,53.2 		"/>
		<polygon class="st16" points="99.5,55 99.5,74.9 81.8,64.7 81.8,44.6 		"/>
		<polygon class="st19" points="81.8,44.6 99.5,55 102.5,53.2 84.7,42.9 		"/>
		<polygon class="st3" points="81.8,44.6 99.5,55 102.5,53.2 99.4,54 		"/>
	</g>
	<g>
		<polygon class="st5" points="115.1,48.4 115.1,80.6 119.9,77.9 119.9,45.4 		"/>
		<polygon class="st21" points="86.4,31.5 115.1,48.4 119.9,45.4 91.2,28.7 		"/>
		<polygon class="st6" points="86.4,31.5 115.1,48.4 119.9,45.4 115.2,47.7 		"/>
	</g>
	<polygon class="st4" points="86.4,31.5 86.4,44.9 101.6,53.8 101.6,72.8 115.1,80.6 115.1,48.4 	"/>
</g>
<g>
	<g>
		<polygon class="st15" points="176.4,126.2 176.4,148.5 179.8,146.6 179.8,124.2 		"/>
		<polygon class="st12" points="176.4,126.2 176.4,148.5 156.6,137 156.6,114.6 		"/>
		<polygon class="st20" points="156.6,114.6 176.4,126.2 179.8,124.2 159.9,112.6 		"/>
		<polygon class="st6" points="156.6,114.6 176.4,126.2 179.8,124.2 176.3,125.1 		"/>
	</g>
	<g>
		<polygon class="st15" points="202.4,141.2 202.4,163.5 205.8,161.6 205.8,139.2 		"/>
		<polygon class="st12" points="202.4,141.2 202.4,163.5 182.6,152 182.6,129.6 		"/>
		<polygon class="st20" points="182.6,129.6 202.4,141.2 205.8,139.2 185.9,127.6 		"/>
		<polygon class="st6" points="182.6,129.6 202.4,141.2 205.8,139.2 202.3,140.1 		"/>
	</g>
	<g>
		<polygon class="st15" points="228.3,156 228.3,178.3 231.6,176.4 231.6,154 		"/>
		<polygon class="st12" points="228.3,156 228.3,178.3 208.5,166.8 208.5,144.4 		"/>
		<polygon class="st20" points="208.5,144.4 228.3,156 231.6,154 211.8,142.5 		"/>
		<polygon class="st6" points="208.5,144.4 228.3,156 231.6,154 228.1,155 		"/>
	</g>
	<g>
		<polygon class="st15" points="253.8,170.5 253.8,192.8 257.1,190.9 257.1,168.5 		"/>
		<polygon class="st12" points="253.8,170.5 253.8,192.8 234,181.3 234,158.9 		"/>
		<polygon class="st20" points="234,158.9 253.8,170.5 257.1,168.5 237.3,157 		"/>
		<polygon class="st6" points="234,158.9 253.8,170.5 257.1,168.5 253.6,169.5 		"/>
	</g>
	<path class="st3" d="M222.3,165.5c-0.7-0.6-1.3-1.4-1.8-2.2c-0.3-0.5-0.3-1.1,0-1.2c0.4-0.2,0.7-0.6,0.9-1c0.3,0.1,0.7,0,0.7-0.5
		c0-0.4-0.2-0.9-0.5-1.2c-0.1-1.9-0.7-3.9-2.9-5.2c-2.2-1.3-2.9-0.1-2.9,1.8c-0.3-0.1-0.5,0.2-0.5,0.7c0,0.4,0.4,1,0.7,1.3
		c0.2,0.7,0.6,1.5,0.9,2.1c0.3,0.5,0.3,1.1,0,1.2c-0.5,0.3-1.1,0.3-1.8,0.1c-0.9-0.3-1.6,0.3-1.6,1.4v2c0,0.4,0.3,0.9,0.6,1l9.2,5.3
		c0.3,0.2,0.6,0,0.6-0.3v-2C223.9,167.6,223.3,166.3,222.3,165.5z"/>
	<path class="st3" d="M237.5,179.8l3.2,1.9v-5.8l-3.2-1.9V179.8z M242.6,182.7l3.2,1.9V174l-3.2-1.9V182.7z M247.7,170.3v15.4
		l3.2,1.9v-15.4L247.7,170.3z"/>
	<path class="st3" d="M197.7,149.8c0-0.3,0-0.6-0.1-0.9l1.5-0.2c-0.2-0.8-0.4-1.5-0.7-2.3l-1.7-0.5c-0.3-0.6-0.7-1.3-1.1-1.9
		l0.4-1.7c-0.5-0.6-1.1-1.2-1.7-1.7l-0.9,1.2c-0.2-0.2-0.5-0.4-0.8-0.5c-0.3-0.1-0.5-0.3-0.8-0.4l-0.9-2.3c-0.6-0.2-1.1-0.2-1.7-0.2
		l0.4,2.2c-0.4,0.1-0.8,0.3-1.1,0.6l-1.7-1.5c-0.3,0.4-0.5,0.9-0.7,1.5l1.5,1.9c0,0.3-0.1,0.5-0.1,0.8c0,0.3,0,0.6,0.1,0.9l-1.5,0.2
		c0.2,0.8,0.4,1.5,0.7,2.3l1.7,0.5c0.3,0.6,0.7,1.3,1.1,1.9l-0.4,1.7c0.5,0.6,1.1,1.2,1.7,1.7l0.9-1.2c0.2,0.2,0.5,0.4,0.8,0.5
		c0.3,0.1,0.5,0.3,0.8,0.4l0.9,2.3c0.6,0.2,1.1,0.2,1.7,0.2l-0.4-2.2c0.4-0.1,0.8-0.3,1.1-0.6l1.7,1.5c0.3-0.4,0.5-0.9,0.7-1.5
		l-1.5-1.9C197.7,150.3,197.7,150.1,197.7,149.8z M192.7,149.2c-1.1-0.6-2-2.2-2-3.4c0-1.3,0.9-1.8,2-1.1c1.1,0.6,2,2.2,2,3.4
		C194.7,149.3,193.8,149.8,192.7,149.2z"/>
	<g>
		<path class="st3" d="M160.3,123.4l6.4,10l6.4-2.6c0,0,0,0,0,0c-0.2-0.3-0.5-0.6-0.8-0.7l-11.3-6.5
			C160.8,123.4,160.5,123.4,160.3,123.4C160.3,123.4,160.3,123.4,160.3,123.4z"/>
		<path class="st3" d="M173.1,130.8l-6.4,3.6l-1.8-3.1l-4.6,1.9c0,0,0,0,0,0l4.2-2.4l-4.2-7.3c-0.3,0.1-0.5,0.4-0.5,0.8v7.6
			c0,0.8,0.6,1.8,1.3,2.2l11.3,6.5c0.7,0.4,1.3,0.1,1.3-0.7v-7.6C173.6,131.8,173.4,131.3,173.1,130.8z M173.1,140.6l-4.6-7.1
			l0.3-0.2L173.1,140.6C173.1,140.6,173.1,140.6,173.1,140.6z"/>
	</g>
</g>
<g>
	<g>
		<polygon class="st13" points="76.6,191.3 76.6,219.8 81.2,217.3 81.2,188.6 		"/>
		<polygon class="st7" points="76.7,191.3 76.7,219.8 0,175.6 0,146.9 		"/>
		<polygon class="st0" points="0,146.9 76.7,191.3 81.2,188.6 4.4,144.2 		"/>
		<polygon class="st6" points="0,146.9 76.7,191.3 81.2,188.6 76.5,190.4 		"/>
	</g>
	<path class="st3" d="M29.6,168.7l-14-8.1c-0.9-0.5-1.6-0.1-1.6,0.9v9.5c0,1,0.7,2.2,1.6,2.7l8.8,5.1l4.4,7.6v-5l0.9,0.5
		c0.9,0.5,1.6,0.1,1.6-0.9v-9.5C31.2,170.4,30.5,169.2,29.6,168.7z M19.7,170.5c-0.5,0.3-1.2-0.2-1.7-1c-0.5-0.8-0.5-1.6,0-1.9
		c0.5-0.3,1.2,0.2,1.7,1C20.2,169.4,20.2,170.2,19.7,170.5z M23.5,172.7c-0.5,0.3-1.2-0.2-1.7-1c-0.5-0.8-0.5-1.6,0-1.9
		c0.5-0.3,1.2,0.2,1.7,1C24,171.5,24,172.4,23.5,172.7z M27.3,174.8c-0.5,0.3-1.2-0.2-1.7-1c-0.5-0.8-0.5-1.6,0-1.9
		c0.5-0.3,1.2,0.2,1.7,1C27.8,173.7,27.8,174.6,27.3,174.8z M12.9,170.3v-7.7l-5.4-3.1C6.7,159,6,159.4,6,160.4v9.5
		c0,1,0.7,2.2,1.6,2.7l0.9,0.5v5l4.4-2.5l8.8,5.1c0.9,0.5,1.6,0.1,1.6-0.9v-0.4l-7.5-4.3C14.1,174.1,12.9,172,12.9,170.3z"/>
	<polygon class="st3" points="34.4,173.5 34.4,175.8 71,197 71,194.6 	"/>
	<polygon class="st3" points="59.4,197.8 34.4,183.3 34.4,185.7 59.4,200.2 	"/>
	<polygon class="st3" points="34.4,180.8 71,201.9 71,199.5 34.4,178.4 	"/>
</g>
<g>
	<path class="st22" d="M127.7,251l-23.8-13.4c2.1-1.5,3.3-3.3,3.3-5.2c0-5.3-9.1-9.6-20.3-9.6s-20.3,4.3-20.3,9.6
		c0,5.3,9.1,9.6,20.3,9.6c2.3,0,4.6-0.2,6.7-0.5l25.6,14.4c1.7,1,4.5,0.8,6.5-0.3C127.8,254.5,130.3,252.5,127.7,251z"/>
	<g>
		<g>
			<path class="st10" d="M127.7,248.3c1.4,2.6,0.4,6-2.2,7.4c-2.6,1.4-6,0.4-7.4-2.2c-1.4-2.6-0.4-6,2.2-7.4
				C122.9,244.7,126.2,245.7,127.7,248.3z"/>
			<path class="st14" d="M110.4,214.1l-11.8,6.4l17.6,32.5l0,0c0,0,0,0,0,0c1,1.9,4.5,2,7.7,0.3c3.3-1.8,5.1-4.7,4-6.6c0,0,0,0,0,0
				l0,0L110.4,214.1z"/>
			<path class="st13" d="M110.4,214.1c1,1.9-0.8,4.9-4,6.6c-3.3,1.8-6.7,1.6-7.7-0.3c-1-1.9,0.8-4.9,4-6.6
				C105.9,212.1,109.4,212.2,110.4,214.1z"/>
			<path class="st10" d="M102.7,205.4l-7,3.8l5,9.3l0,0c0,0,0,0,0,0c0.6,1.1,2.7,1.2,4.6,0.2c1.9-1,3-2.8,2.4-3.9c0,0,0,0,0,0l0,0
				L102.7,205.4z"/>
		</g>
		<g>
			<path class="st0" d="M82.9,131c-8.7-5-16.7-5.6-22.5-2.5c-0.2,0.1-8.5,4.7-8.7,5.1c5.9-4.5,14.6-4.4,24.4,1.2
				c17.8,10.3,32.2,35.1,32.2,55.5c0,10.4-3.8,17.6-9.8,20.9c0.4-0.1,0.9-0.3,1.6-0.7c0.2-0.1,5.8-3.5,6-3.6c5.6-3.4,9-10.5,9-20.4
				C115,166.1,100.6,141.3,82.9,131z"/>
		</g>
		<path class="st2" d="M76.1,134.9c-17.8-10.3-32.2-2-32.2,18.3c0,20.4,14.4,45.2,32.2,55.5c17.8,10.3,32.2,2,32.2-18.3
			S93.8,145.2,76.1,134.9z M75.6,203.9c-15.1-8.7-27.3-29.8-27.3-47.1s12.2-24.3,27.3-15.6c15.1,8.7,27.3,29.8,27.3,47.1
			C102.9,205.6,90.6,212.6,75.6,203.9z"/>
		<path class="st0" d="M81.2,200.7c-15.1-8.7-27.3-29.8-27.3-47.1c0-7.1,2-12.4,5.5-15.6c-6.7,1.8-11.1,8.5-11.1,18.8
			c0,17.3,12.2,38.4,27.3,47.1c8.9,5.2,16.9,4.8,21.8,0.1C92.9,205.2,87.3,204.2,81.2,200.7z"/>
		<path class="st3" d="M77.6,134.1c-8.5-4.9-16.3-5.6-22-2.7c5.4-1.5,13.3-0.7,20.5,3.5c17.8,10.3,32.2,35.1,32.2,55.5
			c0,10.6-5.1,18.2-11.4,21.4c7.9-2.2,12.9-10,12.9-22.1C109.8,169.2,95.4,144.4,77.6,134.1z"/>
	</g>
</g>
</svg>
